%TF.GenerationSoftware,KiCad,Pcbnew,(5.0.1-3-g963ef8bb5)*%
%TF.CreationDate,2019-05-12T17:35:21+02:00*%
%TF.ProjectId,KaJUSBhub,4B614A5553426875622E6B696361645F,0.2*%
%TF.SameCoordinates,Original*%
%TF.FileFunction,Soldermask,Bot*%
%TF.FilePolarity,Negative*%
%FSLAX46Y46*%
G04 Gerber Fmt 4.6, Leading zero omitted, Abs format (unit mm)*
G04 Created by KiCad (PCBNEW (5.0.1-3-g963ef8bb5)) date Sonntag, 12. Mai 2019 um 17:35:21*
%MOMM*%
%LPD*%
G01*
G04 APERTURE LIST*
%ADD10C,0.150000*%
G04 APERTURE END LIST*
D10*
X108000000Y-155000000D02*
X108000000Y-20000000D01*
X220000000Y-155000000D02*
X108000000Y-155000000D01*
X108000000Y-20000000D02*
X220000000Y-20000000D01*
X220000000Y-20000000D02*
X220000000Y-155000000D01*
G36*
X215665944Y-148102520D02*
X215797963Y-148128780D01*
X215952496Y-148192790D01*
X216171038Y-148283313D01*
X216506802Y-148507663D01*
X216792337Y-148793198D01*
X217016687Y-149128962D01*
X217171220Y-149502038D01*
X217250000Y-149898091D01*
X217250000Y-150301909D01*
X217171220Y-150697962D01*
X217016687Y-151071038D01*
X216792337Y-151406802D01*
X216506802Y-151692337D01*
X216171038Y-151916687D01*
X215952496Y-152007210D01*
X215797963Y-152071220D01*
X215665944Y-152097480D01*
X215401909Y-152150000D01*
X214998091Y-152150000D01*
X214734056Y-152097480D01*
X214602037Y-152071220D01*
X214447504Y-152007210D01*
X214228962Y-151916687D01*
X213893198Y-151692337D01*
X213607663Y-151406802D01*
X213383313Y-151071038D01*
X213228780Y-150697962D01*
X213150000Y-150301909D01*
X213150000Y-149898091D01*
X213228780Y-149502038D01*
X213383313Y-149128962D01*
X213607663Y-148793198D01*
X213893198Y-148507663D01*
X214228962Y-148283313D01*
X214447504Y-148192790D01*
X214602037Y-148128780D01*
X214734056Y-148102520D01*
X214998091Y-148050000D01*
X215401909Y-148050000D01*
X215665944Y-148102520D01*
X215665944Y-148102520D01*
G37*
G36*
X113465944Y-145002520D02*
X113597963Y-145028780D01*
X113752496Y-145092790D01*
X113971038Y-145183313D01*
X114306802Y-145407663D01*
X114592337Y-145693198D01*
X114816687Y-146028962D01*
X114971220Y-146402038D01*
X115050000Y-146798091D01*
X115050000Y-147201909D01*
X114971220Y-147597962D01*
X114816687Y-147971038D01*
X114592337Y-148306802D01*
X114306802Y-148592337D01*
X113971038Y-148816687D01*
X113752496Y-148907210D01*
X113597963Y-148971220D01*
X113465944Y-148997480D01*
X113201909Y-149050000D01*
X112798091Y-149050000D01*
X112534056Y-148997480D01*
X112402037Y-148971220D01*
X112247504Y-148907210D01*
X112028962Y-148816687D01*
X111693198Y-148592337D01*
X111407663Y-148306802D01*
X111183313Y-147971038D01*
X111028780Y-147597962D01*
X110950000Y-147201909D01*
X110950000Y-146798091D01*
X111028780Y-146402038D01*
X111183313Y-146028962D01*
X111407663Y-145693198D01*
X111693198Y-145407663D01*
X112028962Y-145183313D01*
X112247504Y-145092790D01*
X112402037Y-145028780D01*
X112534056Y-145002520D01*
X112798091Y-144950000D01*
X113201909Y-144950000D01*
X113465944Y-145002520D01*
X113465944Y-145002520D01*
G37*
G36*
X216465944Y-137002520D02*
X216597963Y-137028780D01*
X216752496Y-137092790D01*
X216971038Y-137183313D01*
X217306802Y-137407663D01*
X217592337Y-137693198D01*
X217816687Y-138028962D01*
X217971220Y-138402038D01*
X218050000Y-138798091D01*
X218050000Y-139201909D01*
X217971220Y-139597962D01*
X217816687Y-139971038D01*
X217592337Y-140306802D01*
X217306802Y-140592337D01*
X216971038Y-140816687D01*
X216752496Y-140907210D01*
X216597963Y-140971220D01*
X216465944Y-140997480D01*
X216201909Y-141050000D01*
X215798091Y-141050000D01*
X215534056Y-140997480D01*
X215402037Y-140971220D01*
X215247504Y-140907210D01*
X215028962Y-140816687D01*
X214693198Y-140592337D01*
X214407663Y-140306802D01*
X214183313Y-139971038D01*
X214028780Y-139597962D01*
X213950000Y-139201909D01*
X213950000Y-138798091D01*
X214028780Y-138402038D01*
X214183313Y-138028962D01*
X214407663Y-137693198D01*
X214693198Y-137407663D01*
X215028962Y-137183313D01*
X215247504Y-137092790D01*
X215402037Y-137028780D01*
X215534056Y-137002520D01*
X215798091Y-136950000D01*
X216201909Y-136950000D01*
X216465944Y-137002520D01*
X216465944Y-137002520D01*
G37*
G36*
X126765944Y-131602520D02*
X126897963Y-131628780D01*
X126973334Y-131660000D01*
X127271038Y-131783313D01*
X127606802Y-132007663D01*
X127892337Y-132293198D01*
X128116687Y-132628962D01*
X128271220Y-133002038D01*
X128350000Y-133398091D01*
X128350000Y-133801909D01*
X128271220Y-134197962D01*
X128116687Y-134571038D01*
X127892337Y-134906802D01*
X127606802Y-135192337D01*
X127271038Y-135416687D01*
X127052496Y-135507210D01*
X126897963Y-135571220D01*
X126765944Y-135597480D01*
X126501909Y-135650000D01*
X126098091Y-135650000D01*
X125834056Y-135597480D01*
X125702037Y-135571220D01*
X125547504Y-135507210D01*
X125328962Y-135416687D01*
X124993198Y-135192337D01*
X124707663Y-134906802D01*
X124483313Y-134571038D01*
X124328780Y-134197962D01*
X124250000Y-133801909D01*
X124250000Y-133398091D01*
X124328780Y-133002038D01*
X124483313Y-132628962D01*
X124707663Y-132293198D01*
X124993198Y-132007663D01*
X125328962Y-131783313D01*
X125626666Y-131660000D01*
X125702037Y-131628780D01*
X125834056Y-131602520D01*
X126098091Y-131550000D01*
X126501909Y-131550000D01*
X126765944Y-131602520D01*
X126765944Y-131602520D01*
G37*
G36*
X211061716Y-127344544D02*
X211462090Y-127510384D01*
X211822421Y-127751150D01*
X212128850Y-128057579D01*
X212369616Y-128417910D01*
X212535456Y-128818284D01*
X212620000Y-129243317D01*
X212620000Y-129676683D01*
X212535456Y-130101716D01*
X212369616Y-130502090D01*
X212128850Y-130862421D01*
X211822421Y-131168850D01*
X211462090Y-131409616D01*
X211061716Y-131575456D01*
X210636683Y-131660000D01*
X210203317Y-131660000D01*
X209778284Y-131575456D01*
X209377910Y-131409616D01*
X209017579Y-131168850D01*
X208711150Y-130862421D01*
X208470384Y-130502090D01*
X208304544Y-130101716D01*
X208220000Y-129676683D01*
X208220000Y-129243317D01*
X208304544Y-128818284D01*
X208470384Y-128417910D01*
X208711150Y-128057579D01*
X209017579Y-127751150D01*
X209377910Y-127510384D01*
X209778284Y-127344544D01*
X210203317Y-127260000D01*
X210636683Y-127260000D01*
X211061716Y-127344544D01*
X211061716Y-127344544D01*
G37*
G36*
X182206030Y-123474469D02*
X182206033Y-123474470D01*
X182206034Y-123474470D01*
X182394535Y-123531651D01*
X182394537Y-123531652D01*
X182568260Y-123624509D01*
X182720528Y-123749472D01*
X182845491Y-123901740D01*
X182938348Y-124075463D01*
X182995531Y-124263970D01*
X183014838Y-124460000D01*
X182995531Y-124656030D01*
X182938348Y-124844537D01*
X182845491Y-125018260D01*
X182720528Y-125170528D01*
X182568260Y-125295491D01*
X182568258Y-125295492D01*
X182394535Y-125388349D01*
X182206034Y-125445530D01*
X182206033Y-125445530D01*
X182206030Y-125445531D01*
X182059124Y-125460000D01*
X181160876Y-125460000D01*
X181013970Y-125445531D01*
X181013967Y-125445530D01*
X181013966Y-125445530D01*
X180825465Y-125388349D01*
X180651742Y-125295492D01*
X180651740Y-125295491D01*
X180499472Y-125170528D01*
X180374509Y-125018260D01*
X180281652Y-124844537D01*
X180224469Y-124656030D01*
X180205162Y-124460000D01*
X180224469Y-124263970D01*
X180281652Y-124075463D01*
X180374509Y-123901740D01*
X180499472Y-123749472D01*
X180651740Y-123624509D01*
X180825463Y-123531652D01*
X180825465Y-123531651D01*
X181013966Y-123474470D01*
X181013967Y-123474470D01*
X181013970Y-123474469D01*
X181160876Y-123460000D01*
X182059124Y-123460000D01*
X182206030Y-123474469D01*
X182206030Y-123474469D01*
G37*
G36*
X129400000Y-125000000D02*
X126600000Y-125000000D01*
X126600000Y-123000000D01*
X129400000Y-123000000D01*
X129400000Y-125000000D01*
X129400000Y-125000000D01*
G37*
G36*
X210000000Y-123500000D02*
X208000000Y-123500000D01*
X208000000Y-121500000D01*
X210000000Y-121500000D01*
X210000000Y-123500000D01*
X210000000Y-123500000D01*
G37*
G36*
X182206030Y-120934469D02*
X182206033Y-120934470D01*
X182206034Y-120934470D01*
X182394535Y-120991651D01*
X182394537Y-120991652D01*
X182568260Y-121084509D01*
X182720528Y-121209472D01*
X182845491Y-121361740D01*
X182938348Y-121535463D01*
X182995531Y-121723970D01*
X183014838Y-121920000D01*
X182995531Y-122116030D01*
X182938348Y-122304537D01*
X182845491Y-122478260D01*
X182720528Y-122630528D01*
X182568260Y-122755491D01*
X182568258Y-122755492D01*
X182394535Y-122848349D01*
X182206034Y-122905530D01*
X182206033Y-122905530D01*
X182206030Y-122905531D01*
X182059124Y-122920000D01*
X181160876Y-122920000D01*
X181013970Y-122905531D01*
X181013967Y-122905530D01*
X181013966Y-122905530D01*
X180825465Y-122848349D01*
X180651742Y-122755492D01*
X180651740Y-122755491D01*
X180499472Y-122630528D01*
X180374509Y-122478260D01*
X180281652Y-122304537D01*
X180224469Y-122116030D01*
X180205162Y-121920000D01*
X180224469Y-121723970D01*
X180281652Y-121535463D01*
X180374509Y-121361740D01*
X180499472Y-121209472D01*
X180651740Y-121084509D01*
X180825463Y-120991652D01*
X180825465Y-120991651D01*
X181013966Y-120934470D01*
X181013967Y-120934470D01*
X181013970Y-120934469D01*
X181160876Y-120920000D01*
X182059124Y-120920000D01*
X182206030Y-120934469D01*
X182206030Y-120934469D01*
G37*
G36*
X128596030Y-120474469D02*
X128596033Y-120474470D01*
X128596034Y-120474470D01*
X128784535Y-120531651D01*
X128784537Y-120531652D01*
X128958260Y-120624509D01*
X129110528Y-120749472D01*
X129235491Y-120901740D01*
X129235492Y-120901742D01*
X129328349Y-121075465D01*
X129370219Y-121213493D01*
X129385531Y-121263970D01*
X129404838Y-121460000D01*
X129385531Y-121656030D01*
X129385530Y-121656033D01*
X129385530Y-121656034D01*
X129356278Y-121752466D01*
X129328348Y-121844537D01*
X129235491Y-122018260D01*
X129110528Y-122170528D01*
X128958260Y-122295491D01*
X128958258Y-122295492D01*
X128784535Y-122388349D01*
X128596034Y-122445530D01*
X128596033Y-122445530D01*
X128596030Y-122445531D01*
X128449124Y-122460000D01*
X127550876Y-122460000D01*
X127403970Y-122445531D01*
X127403967Y-122445530D01*
X127403966Y-122445530D01*
X127215465Y-122388349D01*
X127041742Y-122295492D01*
X127041740Y-122295491D01*
X126889472Y-122170528D01*
X126764509Y-122018260D01*
X126671652Y-121844537D01*
X126643723Y-121752466D01*
X126614470Y-121656034D01*
X126614470Y-121656033D01*
X126614469Y-121656030D01*
X126595162Y-121460000D01*
X126614469Y-121263970D01*
X126629781Y-121213493D01*
X126671651Y-121075465D01*
X126764508Y-120901742D01*
X126764509Y-120901740D01*
X126889472Y-120749472D01*
X127041740Y-120624509D01*
X127215463Y-120531652D01*
X127215465Y-120531651D01*
X127403966Y-120474470D01*
X127403967Y-120474470D01*
X127403970Y-120474469D01*
X127550876Y-120460000D01*
X128449124Y-120460000D01*
X128596030Y-120474469D01*
X128596030Y-120474469D01*
G37*
G36*
X212015770Y-120130372D02*
X212131689Y-120153429D01*
X212313678Y-120228811D01*
X212477463Y-120338249D01*
X212616751Y-120477537D01*
X212726189Y-120641322D01*
X212801571Y-120823311D01*
X212817171Y-120901740D01*
X212835056Y-120991651D01*
X212840000Y-121016509D01*
X212840000Y-121213491D01*
X212801571Y-121406689D01*
X212726189Y-121588678D01*
X212616751Y-121752463D01*
X212477463Y-121891751D01*
X212313678Y-122001189D01*
X212131689Y-122076571D01*
X212015770Y-122099628D01*
X211938493Y-122115000D01*
X211741507Y-122115000D01*
X211664230Y-122099628D01*
X211548311Y-122076571D01*
X211366322Y-122001189D01*
X211202537Y-121891751D01*
X211063249Y-121752463D01*
X210953811Y-121588678D01*
X210878429Y-121406689D01*
X210840000Y-121213491D01*
X210840000Y-121016509D01*
X210844945Y-120991651D01*
X210862829Y-120901740D01*
X210878429Y-120823311D01*
X210953811Y-120641322D01*
X211063249Y-120477537D01*
X211202537Y-120338249D01*
X211366322Y-120228811D01*
X211548311Y-120153429D01*
X211664230Y-120130372D01*
X211741507Y-120115000D01*
X211938493Y-120115000D01*
X212015770Y-120130372D01*
X212015770Y-120130372D01*
G37*
G36*
X209175770Y-118745372D02*
X209291689Y-118768429D01*
X209473678Y-118843811D01*
X209637463Y-118953249D01*
X209776751Y-119092537D01*
X209886189Y-119256322D01*
X209961571Y-119438311D01*
X209969517Y-119478260D01*
X210000000Y-119631507D01*
X210000000Y-119828493D01*
X209996050Y-119848349D01*
X209961571Y-120021689D01*
X209886189Y-120203678D01*
X209776751Y-120367463D01*
X209637463Y-120506751D01*
X209473678Y-120616189D01*
X209291689Y-120691571D01*
X209175770Y-120714628D01*
X209098493Y-120730000D01*
X208901507Y-120730000D01*
X208824230Y-120714628D01*
X208708311Y-120691571D01*
X208526322Y-120616189D01*
X208362537Y-120506751D01*
X208223249Y-120367463D01*
X208113811Y-120203678D01*
X208038429Y-120021689D01*
X208003950Y-119848349D01*
X208000000Y-119828493D01*
X208000000Y-119631507D01*
X208030483Y-119478260D01*
X208038429Y-119438311D01*
X208113811Y-119256322D01*
X208223249Y-119092537D01*
X208362537Y-118953249D01*
X208526322Y-118843811D01*
X208708311Y-118768429D01*
X208824230Y-118745372D01*
X208901507Y-118730000D01*
X209098493Y-118730000D01*
X209175770Y-118745372D01*
X209175770Y-118745372D01*
G37*
G36*
X182206030Y-118394469D02*
X182206033Y-118394470D01*
X182206034Y-118394470D01*
X182394535Y-118451651D01*
X182394537Y-118451652D01*
X182568260Y-118544509D01*
X182720528Y-118669472D01*
X182845491Y-118821740D01*
X182938348Y-118995463D01*
X182995531Y-119183970D01*
X183014838Y-119380000D01*
X182995531Y-119576030D01*
X182938348Y-119764537D01*
X182845491Y-119938260D01*
X182720528Y-120090528D01*
X182568260Y-120215491D01*
X182568258Y-120215492D01*
X182394535Y-120308349D01*
X182206034Y-120365530D01*
X182206033Y-120365530D01*
X182206030Y-120365531D01*
X182059124Y-120380000D01*
X181160876Y-120380000D01*
X181013970Y-120365531D01*
X181013967Y-120365530D01*
X181013966Y-120365530D01*
X180825465Y-120308349D01*
X180651742Y-120215492D01*
X180651740Y-120215491D01*
X180499472Y-120090528D01*
X180374509Y-119938260D01*
X180281652Y-119764537D01*
X180224469Y-119576030D01*
X180205162Y-119380000D01*
X180224469Y-119183970D01*
X180281652Y-118995463D01*
X180374509Y-118821740D01*
X180499472Y-118669472D01*
X180651740Y-118544509D01*
X180825463Y-118451652D01*
X180825465Y-118451651D01*
X181013966Y-118394470D01*
X181013967Y-118394470D01*
X181013970Y-118394469D01*
X181160876Y-118380000D01*
X182059124Y-118380000D01*
X182206030Y-118394469D01*
X182206030Y-118394469D01*
G37*
G36*
X128596030Y-117934469D02*
X128596033Y-117934470D01*
X128596034Y-117934470D01*
X128784535Y-117991651D01*
X128784537Y-117991652D01*
X128958260Y-118084509D01*
X129110528Y-118209472D01*
X129235491Y-118361740D01*
X129328348Y-118535463D01*
X129385531Y-118723970D01*
X129404838Y-118920000D01*
X129385531Y-119116030D01*
X129328348Y-119304537D01*
X129235491Y-119478260D01*
X129110528Y-119630528D01*
X128958260Y-119755491D01*
X128958258Y-119755492D01*
X128784535Y-119848349D01*
X128596034Y-119905530D01*
X128596033Y-119905530D01*
X128596030Y-119905531D01*
X128449124Y-119920000D01*
X127550876Y-119920000D01*
X127403970Y-119905531D01*
X127403967Y-119905530D01*
X127403966Y-119905530D01*
X127215465Y-119848349D01*
X127041742Y-119755492D01*
X127041740Y-119755491D01*
X126889472Y-119630528D01*
X126764509Y-119478260D01*
X126671652Y-119304537D01*
X126614469Y-119116030D01*
X126595162Y-118920000D01*
X126614469Y-118723970D01*
X126671652Y-118535463D01*
X126764509Y-118361740D01*
X126889472Y-118209472D01*
X127041740Y-118084509D01*
X127215463Y-117991652D01*
X127215465Y-117991651D01*
X127403966Y-117934470D01*
X127403967Y-117934470D01*
X127403970Y-117934469D01*
X127550876Y-117920000D01*
X128449124Y-117920000D01*
X128596030Y-117934469D01*
X128596030Y-117934469D01*
G37*
G36*
X212015770Y-117360372D02*
X212131689Y-117383429D01*
X212313678Y-117458811D01*
X212477463Y-117568249D01*
X212616751Y-117707537D01*
X212726189Y-117871322D01*
X212801571Y-118053311D01*
X212840000Y-118246509D01*
X212840000Y-118443491D01*
X212801571Y-118636689D01*
X212726189Y-118818678D01*
X212616751Y-118982463D01*
X212477463Y-119121751D01*
X212313678Y-119231189D01*
X212131689Y-119306571D01*
X212015770Y-119329628D01*
X211938493Y-119345000D01*
X211741507Y-119345000D01*
X211664230Y-119329628D01*
X211548311Y-119306571D01*
X211366322Y-119231189D01*
X211202537Y-119121751D01*
X211063249Y-118982463D01*
X210953811Y-118818678D01*
X210878429Y-118636689D01*
X210840000Y-118443491D01*
X210840000Y-118246509D01*
X210878429Y-118053311D01*
X210953811Y-117871322D01*
X211063249Y-117707537D01*
X211202537Y-117568249D01*
X211366322Y-117458811D01*
X211548311Y-117383429D01*
X211664230Y-117360372D01*
X211741507Y-117345000D01*
X211938493Y-117345000D01*
X212015770Y-117360372D01*
X212015770Y-117360372D01*
G37*
G36*
X209175770Y-115975372D02*
X209291689Y-115998429D01*
X209473678Y-116073811D01*
X209637463Y-116183249D01*
X209776751Y-116322537D01*
X209886189Y-116486322D01*
X209961571Y-116668311D01*
X210000000Y-116861509D01*
X210000000Y-117058491D01*
X209961571Y-117251689D01*
X209886189Y-117433678D01*
X209776751Y-117597463D01*
X209637463Y-117736751D01*
X209473678Y-117846189D01*
X209291689Y-117921571D01*
X209175770Y-117944628D01*
X209098493Y-117960000D01*
X208901507Y-117960000D01*
X208824230Y-117944628D01*
X208708311Y-117921571D01*
X208526322Y-117846189D01*
X208362537Y-117736751D01*
X208223249Y-117597463D01*
X208113811Y-117433678D01*
X208038429Y-117251689D01*
X208000000Y-117058491D01*
X208000000Y-116861509D01*
X208038429Y-116668311D01*
X208113811Y-116486322D01*
X208223249Y-116322537D01*
X208362537Y-116183249D01*
X208526322Y-116073811D01*
X208708311Y-115998429D01*
X208824230Y-115975372D01*
X208901507Y-115960000D01*
X209098493Y-115960000D01*
X209175770Y-115975372D01*
X209175770Y-115975372D01*
G37*
G36*
X182206030Y-115854469D02*
X182206033Y-115854470D01*
X182206034Y-115854470D01*
X182394535Y-115911651D01*
X182394537Y-115911652D01*
X182568260Y-116004509D01*
X182720528Y-116129472D01*
X182845491Y-116281740D01*
X182938348Y-116455463D01*
X182995531Y-116643970D01*
X183014838Y-116840000D01*
X182995531Y-117036030D01*
X182938348Y-117224537D01*
X182845491Y-117398260D01*
X182720528Y-117550528D01*
X182568260Y-117675491D01*
X182568258Y-117675492D01*
X182394535Y-117768349D01*
X182206034Y-117825530D01*
X182206033Y-117825530D01*
X182206030Y-117825531D01*
X182059124Y-117840000D01*
X181160876Y-117840000D01*
X181013970Y-117825531D01*
X181013967Y-117825530D01*
X181013966Y-117825530D01*
X180825465Y-117768349D01*
X180651742Y-117675492D01*
X180651740Y-117675491D01*
X180499472Y-117550528D01*
X180374509Y-117398260D01*
X180281652Y-117224537D01*
X180224469Y-117036030D01*
X180205162Y-116840000D01*
X180224469Y-116643970D01*
X180281652Y-116455463D01*
X180374509Y-116281740D01*
X180499472Y-116129472D01*
X180651740Y-116004509D01*
X180825463Y-115911652D01*
X180825465Y-115911651D01*
X181013966Y-115854470D01*
X181013967Y-115854470D01*
X181013970Y-115854469D01*
X181160876Y-115840000D01*
X182059124Y-115840000D01*
X182206030Y-115854469D01*
X182206030Y-115854469D01*
G37*
G36*
X128646030Y-115394469D02*
X128646033Y-115394470D01*
X128646034Y-115394470D01*
X128834535Y-115451651D01*
X128834537Y-115451652D01*
X129008260Y-115544509D01*
X129160528Y-115669472D01*
X129285491Y-115821740D01*
X129285492Y-115821742D01*
X129378349Y-115995465D01*
X129435314Y-116183253D01*
X129435531Y-116183970D01*
X129454838Y-116380000D01*
X129435531Y-116576030D01*
X129378348Y-116764537D01*
X129285491Y-116938260D01*
X129160528Y-117090528D01*
X129008260Y-117215491D01*
X129008258Y-117215492D01*
X128834535Y-117308349D01*
X128646034Y-117365530D01*
X128646033Y-117365530D01*
X128646030Y-117365531D01*
X128499124Y-117380000D01*
X127500876Y-117380000D01*
X127353970Y-117365531D01*
X127353967Y-117365530D01*
X127353966Y-117365530D01*
X127165465Y-117308349D01*
X126991742Y-117215492D01*
X126991740Y-117215491D01*
X126839472Y-117090528D01*
X126714509Y-116938260D01*
X126621652Y-116764537D01*
X126564469Y-116576030D01*
X126545162Y-116380000D01*
X126564469Y-116183970D01*
X126564686Y-116183253D01*
X126621651Y-115995465D01*
X126714508Y-115821742D01*
X126714509Y-115821740D01*
X126839472Y-115669472D01*
X126991740Y-115544509D01*
X127165463Y-115451652D01*
X127165465Y-115451651D01*
X127353966Y-115394470D01*
X127353967Y-115394470D01*
X127353970Y-115394469D01*
X127500876Y-115380000D01*
X128499124Y-115380000D01*
X128646030Y-115394469D01*
X128646030Y-115394469D01*
G37*
G36*
X212015770Y-114590372D02*
X212131689Y-114613429D01*
X212313678Y-114688811D01*
X212477463Y-114798249D01*
X212616751Y-114937537D01*
X212726189Y-115101322D01*
X212801571Y-115283311D01*
X212820803Y-115380000D01*
X212835056Y-115451651D01*
X212840000Y-115476509D01*
X212840000Y-115673491D01*
X212801571Y-115866689D01*
X212726189Y-116048678D01*
X212616751Y-116212463D01*
X212477463Y-116351751D01*
X212313678Y-116461189D01*
X212131689Y-116536571D01*
X212015770Y-116559628D01*
X211938493Y-116575000D01*
X211741507Y-116575000D01*
X211664230Y-116559628D01*
X211548311Y-116536571D01*
X211366322Y-116461189D01*
X211202537Y-116351751D01*
X211063249Y-116212463D01*
X210953811Y-116048678D01*
X210878429Y-115866689D01*
X210840000Y-115673491D01*
X210840000Y-115476509D01*
X210844945Y-115451651D01*
X210859197Y-115380000D01*
X210878429Y-115283311D01*
X210953811Y-115101322D01*
X211063249Y-114937537D01*
X211202537Y-114798249D01*
X211366322Y-114688811D01*
X211548311Y-114613429D01*
X211664230Y-114590372D01*
X211741507Y-114575000D01*
X211938493Y-114575000D01*
X212015770Y-114590372D01*
X212015770Y-114590372D01*
G37*
G36*
X182206030Y-113314469D02*
X182206033Y-113314470D01*
X182206034Y-113314470D01*
X182394535Y-113371651D01*
X182394537Y-113371652D01*
X182568260Y-113464509D01*
X182720528Y-113589472D01*
X182845491Y-113741740D01*
X182845492Y-113741742D01*
X182938349Y-113915465D01*
X182991751Y-114091509D01*
X182995531Y-114103970D01*
X183014838Y-114300000D01*
X182995531Y-114496030D01*
X182995530Y-114496033D01*
X182995530Y-114496034D01*
X182944677Y-114663675D01*
X182938348Y-114684537D01*
X182845491Y-114858260D01*
X182720528Y-115010528D01*
X182568260Y-115135491D01*
X182568258Y-115135492D01*
X182394535Y-115228349D01*
X182206034Y-115285530D01*
X182206033Y-115285530D01*
X182206030Y-115285531D01*
X182059124Y-115300000D01*
X181160876Y-115300000D01*
X181013970Y-115285531D01*
X181013967Y-115285530D01*
X181013966Y-115285530D01*
X180825465Y-115228349D01*
X180651742Y-115135492D01*
X180651740Y-115135491D01*
X180499472Y-115010528D01*
X180374509Y-114858260D01*
X180281652Y-114684537D01*
X180275324Y-114663675D01*
X180224470Y-114496034D01*
X180224470Y-114496033D01*
X180224469Y-114496030D01*
X180205162Y-114300000D01*
X180224469Y-114103970D01*
X180228249Y-114091509D01*
X180281651Y-113915465D01*
X180374508Y-113741742D01*
X180374509Y-113741740D01*
X180499472Y-113589472D01*
X180651740Y-113464509D01*
X180825463Y-113371652D01*
X180825465Y-113371651D01*
X181013966Y-113314470D01*
X181013967Y-113314470D01*
X181013970Y-113314469D01*
X181160876Y-113300000D01*
X182059124Y-113300000D01*
X182206030Y-113314469D01*
X182206030Y-113314469D01*
G37*
G36*
X209175770Y-113205372D02*
X209291689Y-113228429D01*
X209473678Y-113303811D01*
X209637463Y-113413249D01*
X209776751Y-113552537D01*
X209886189Y-113716322D01*
X209961571Y-113898311D01*
X210000000Y-114091509D01*
X210000000Y-114288491D01*
X209961571Y-114481689D01*
X209886189Y-114663678D01*
X209776751Y-114827463D01*
X209637463Y-114966751D01*
X209473678Y-115076189D01*
X209291689Y-115151571D01*
X209175770Y-115174628D01*
X209098493Y-115190000D01*
X208901507Y-115190000D01*
X208824230Y-115174628D01*
X208708311Y-115151571D01*
X208526322Y-115076189D01*
X208362537Y-114966751D01*
X208223249Y-114827463D01*
X208113811Y-114663678D01*
X208038429Y-114481689D01*
X208000000Y-114288491D01*
X208000000Y-114091509D01*
X208038429Y-113898311D01*
X208113811Y-113716322D01*
X208223249Y-113552537D01*
X208362537Y-113413249D01*
X208526322Y-113303811D01*
X208708311Y-113228429D01*
X208824230Y-113205372D01*
X208901507Y-113190000D01*
X209098493Y-113190000D01*
X209175770Y-113205372D01*
X209175770Y-113205372D01*
G37*
G36*
X212015770Y-111820372D02*
X212131689Y-111843429D01*
X212313678Y-111918811D01*
X212477463Y-112028249D01*
X212616751Y-112167537D01*
X212726189Y-112331322D01*
X212801571Y-112513311D01*
X212840000Y-112706509D01*
X212840000Y-112903491D01*
X212801571Y-113096689D01*
X212726189Y-113278678D01*
X212616751Y-113442463D01*
X212477463Y-113581751D01*
X212313678Y-113691189D01*
X212131689Y-113766571D01*
X212015770Y-113789628D01*
X211938493Y-113805000D01*
X211741507Y-113805000D01*
X211664230Y-113789628D01*
X211548311Y-113766571D01*
X211366322Y-113691189D01*
X211202537Y-113581751D01*
X211063249Y-113442463D01*
X210953811Y-113278678D01*
X210878429Y-113096689D01*
X210840000Y-112903491D01*
X210840000Y-112706509D01*
X210878429Y-112513311D01*
X210953811Y-112331322D01*
X211063249Y-112167537D01*
X211202537Y-112028249D01*
X211366322Y-111918811D01*
X211548311Y-111843429D01*
X211664230Y-111820372D01*
X211741507Y-111805000D01*
X211938493Y-111805000D01*
X212015770Y-111820372D01*
X212015770Y-111820372D01*
G37*
G36*
X182206030Y-110774469D02*
X182206033Y-110774470D01*
X182206034Y-110774470D01*
X182394535Y-110831651D01*
X182394537Y-110831652D01*
X182568260Y-110924509D01*
X182720528Y-111049472D01*
X182845491Y-111201740D01*
X182938348Y-111375463D01*
X182995531Y-111563970D01*
X183014838Y-111760000D01*
X182995531Y-111956030D01*
X182995530Y-111956033D01*
X182995530Y-111956034D01*
X182973623Y-112028253D01*
X182938348Y-112144537D01*
X182845491Y-112318260D01*
X182720528Y-112470528D01*
X182568260Y-112595491D01*
X182568258Y-112595492D01*
X182394535Y-112688349D01*
X182206034Y-112745530D01*
X182206033Y-112745530D01*
X182206030Y-112745531D01*
X182059124Y-112760000D01*
X181160876Y-112760000D01*
X181013970Y-112745531D01*
X181013967Y-112745530D01*
X181013966Y-112745530D01*
X180825465Y-112688349D01*
X180651742Y-112595492D01*
X180651740Y-112595491D01*
X180499472Y-112470528D01*
X180374509Y-112318260D01*
X180281652Y-112144537D01*
X180246378Y-112028253D01*
X180224470Y-111956034D01*
X180224470Y-111956033D01*
X180224469Y-111956030D01*
X180205162Y-111760000D01*
X180224469Y-111563970D01*
X180281652Y-111375463D01*
X180374509Y-111201740D01*
X180499472Y-111049472D01*
X180651740Y-110924509D01*
X180825463Y-110831652D01*
X180825465Y-110831651D01*
X181013966Y-110774470D01*
X181013967Y-110774470D01*
X181013970Y-110774469D01*
X181160876Y-110760000D01*
X182059124Y-110760000D01*
X182206030Y-110774469D01*
X182206030Y-110774469D01*
G37*
G36*
X209175770Y-110435372D02*
X209291689Y-110458429D01*
X209473678Y-110533811D01*
X209637463Y-110643249D01*
X209776751Y-110782537D01*
X209886189Y-110946322D01*
X209961571Y-111128311D01*
X210000000Y-111321509D01*
X210000000Y-111518491D01*
X209961571Y-111711689D01*
X209886189Y-111893678D01*
X209776751Y-112057463D01*
X209637463Y-112196751D01*
X209473678Y-112306189D01*
X209291689Y-112381571D01*
X209175770Y-112404628D01*
X209098493Y-112420000D01*
X208901507Y-112420000D01*
X208824230Y-112404628D01*
X208708311Y-112381571D01*
X208526322Y-112306189D01*
X208362537Y-112196751D01*
X208223249Y-112057463D01*
X208113811Y-111893678D01*
X208038429Y-111711689D01*
X208000000Y-111518491D01*
X208000000Y-111321509D01*
X208038429Y-111128311D01*
X208113811Y-110946322D01*
X208223249Y-110782537D01*
X208362537Y-110643249D01*
X208526322Y-110533811D01*
X208708311Y-110458429D01*
X208824230Y-110435372D01*
X208901507Y-110420000D01*
X209098493Y-110420000D01*
X209175770Y-110435372D01*
X209175770Y-110435372D01*
G37*
G36*
X182206030Y-108234469D02*
X182206033Y-108234470D01*
X182206034Y-108234470D01*
X182394535Y-108291651D01*
X182394537Y-108291652D01*
X182568260Y-108384509D01*
X182720528Y-108509472D01*
X182845491Y-108661740D01*
X182938348Y-108835463D01*
X182995531Y-109023970D01*
X183014838Y-109220000D01*
X182995531Y-109416030D01*
X182938348Y-109604537D01*
X182845491Y-109778260D01*
X182720528Y-109930528D01*
X182568260Y-110055491D01*
X182568258Y-110055492D01*
X182394535Y-110148349D01*
X182206034Y-110205530D01*
X182206033Y-110205530D01*
X182206030Y-110205531D01*
X182059124Y-110220000D01*
X181160876Y-110220000D01*
X181013970Y-110205531D01*
X181013967Y-110205530D01*
X181013966Y-110205530D01*
X180825465Y-110148349D01*
X180651742Y-110055492D01*
X180651740Y-110055491D01*
X180499472Y-109930528D01*
X180374509Y-109778260D01*
X180281652Y-109604537D01*
X180224469Y-109416030D01*
X180205162Y-109220000D01*
X180224469Y-109023970D01*
X180281652Y-108835463D01*
X180374509Y-108661740D01*
X180499472Y-108509472D01*
X180651740Y-108384509D01*
X180825463Y-108291652D01*
X180825465Y-108291651D01*
X181013966Y-108234470D01*
X181013967Y-108234470D01*
X181013970Y-108234469D01*
X181160876Y-108220000D01*
X182059124Y-108220000D01*
X182206030Y-108234469D01*
X182206030Y-108234469D01*
G37*
G36*
X182206030Y-105694469D02*
X182206033Y-105694470D01*
X182206034Y-105694470D01*
X182394535Y-105751651D01*
X182394537Y-105751652D01*
X182568260Y-105844509D01*
X182720528Y-105969472D01*
X182845491Y-106121740D01*
X182938348Y-106295463D01*
X182995531Y-106483970D01*
X183014838Y-106680000D01*
X182995531Y-106876030D01*
X182938348Y-107064537D01*
X182845491Y-107238260D01*
X182720528Y-107390528D01*
X182568260Y-107515491D01*
X182568258Y-107515492D01*
X182394535Y-107608349D01*
X182206034Y-107665530D01*
X182206033Y-107665530D01*
X182206030Y-107665531D01*
X182059124Y-107680000D01*
X181160876Y-107680000D01*
X181013970Y-107665531D01*
X181013967Y-107665530D01*
X181013966Y-107665530D01*
X180825465Y-107608349D01*
X180651742Y-107515492D01*
X180651740Y-107515491D01*
X180499472Y-107390528D01*
X180374509Y-107238260D01*
X180281652Y-107064537D01*
X180224469Y-106876030D01*
X180205162Y-106680000D01*
X180224469Y-106483970D01*
X180281652Y-106295463D01*
X180374509Y-106121740D01*
X180499472Y-105969472D01*
X180651740Y-105844509D01*
X180825463Y-105751652D01*
X180825465Y-105751651D01*
X181013966Y-105694470D01*
X181013967Y-105694470D01*
X181013970Y-105694469D01*
X181160876Y-105680000D01*
X182059124Y-105680000D01*
X182206030Y-105694469D01*
X182206030Y-105694469D01*
G37*
G36*
X211061716Y-102344544D02*
X211462090Y-102510384D01*
X211822421Y-102751150D01*
X212128850Y-103057579D01*
X212369616Y-103417910D01*
X212535456Y-103818284D01*
X212620000Y-104243317D01*
X212620000Y-104676683D01*
X212535456Y-105101716D01*
X212369616Y-105502090D01*
X212128850Y-105862421D01*
X211822421Y-106168850D01*
X211462090Y-106409616D01*
X211061716Y-106575456D01*
X210636683Y-106660000D01*
X210203317Y-106660000D01*
X209778284Y-106575456D01*
X209377910Y-106409616D01*
X209017579Y-106168850D01*
X208711150Y-105862421D01*
X208470384Y-105502090D01*
X208304544Y-105101716D01*
X208220000Y-104676683D01*
X208220000Y-104243317D01*
X208304544Y-103818284D01*
X208470384Y-103417910D01*
X208711150Y-103057579D01*
X209017579Y-102751150D01*
X209377910Y-102510384D01*
X209778284Y-102344544D01*
X210203317Y-102260000D01*
X210636683Y-102260000D01*
X211061716Y-102344544D01*
X211061716Y-102344544D01*
G37*
G36*
X182206030Y-103154469D02*
X182206033Y-103154470D01*
X182206034Y-103154470D01*
X182394535Y-103211651D01*
X182394537Y-103211652D01*
X182568260Y-103304509D01*
X182720528Y-103429472D01*
X182845491Y-103581740D01*
X182938348Y-103755463D01*
X182995531Y-103943970D01*
X183014838Y-104140000D01*
X182995531Y-104336030D01*
X182938348Y-104524537D01*
X182845491Y-104698260D01*
X182720528Y-104850528D01*
X182568260Y-104975491D01*
X182568258Y-104975492D01*
X182394535Y-105068349D01*
X182206034Y-105125530D01*
X182206033Y-105125530D01*
X182206030Y-105125531D01*
X182059124Y-105140000D01*
X181160876Y-105140000D01*
X181013970Y-105125531D01*
X181013967Y-105125530D01*
X181013966Y-105125530D01*
X180825465Y-105068349D01*
X180651742Y-104975492D01*
X180651740Y-104975491D01*
X180499472Y-104850528D01*
X180374509Y-104698260D01*
X180281652Y-104524537D01*
X180224469Y-104336030D01*
X180205162Y-104140000D01*
X180224469Y-103943970D01*
X180281652Y-103755463D01*
X180374509Y-103581740D01*
X180499472Y-103429472D01*
X180651740Y-103304509D01*
X180825463Y-103211652D01*
X180825465Y-103211651D01*
X181013966Y-103154470D01*
X181013967Y-103154470D01*
X181013970Y-103154469D01*
X181160876Y-103140000D01*
X182059124Y-103140000D01*
X182206030Y-103154469D01*
X182206030Y-103154469D01*
G37*
G36*
X129400000Y-105000000D02*
X126600000Y-105000000D01*
X126600000Y-103000000D01*
X129400000Y-103000000D01*
X129400000Y-105000000D01*
X129400000Y-105000000D01*
G37*
G36*
X182206030Y-100614469D02*
X182206033Y-100614470D01*
X182206034Y-100614470D01*
X182394535Y-100671651D01*
X182394537Y-100671652D01*
X182568260Y-100764509D01*
X182720528Y-100889472D01*
X182845491Y-101041740D01*
X182845492Y-101041742D01*
X182938349Y-101215465D01*
X182995530Y-101403966D01*
X182995531Y-101403970D01*
X183014838Y-101600000D01*
X182995531Y-101796030D01*
X182938348Y-101984537D01*
X182845491Y-102158260D01*
X182720528Y-102310528D01*
X182568260Y-102435491D01*
X182522407Y-102460000D01*
X182394535Y-102528349D01*
X182206034Y-102585530D01*
X182206033Y-102585530D01*
X182206030Y-102585531D01*
X182059124Y-102600000D01*
X181160876Y-102600000D01*
X181013970Y-102585531D01*
X181013967Y-102585530D01*
X181013966Y-102585530D01*
X180825465Y-102528349D01*
X180697593Y-102460000D01*
X180651740Y-102435491D01*
X180499472Y-102310528D01*
X180374509Y-102158260D01*
X180281652Y-101984537D01*
X180224469Y-101796030D01*
X180205162Y-101600000D01*
X180224469Y-101403970D01*
X180224470Y-101403966D01*
X180281651Y-101215465D01*
X180374508Y-101041742D01*
X180374509Y-101041740D01*
X180499472Y-100889472D01*
X180651740Y-100764509D01*
X180825463Y-100671652D01*
X180825465Y-100671651D01*
X181013966Y-100614470D01*
X181013967Y-100614470D01*
X181013970Y-100614469D01*
X181160876Y-100600000D01*
X182059124Y-100600000D01*
X182206030Y-100614469D01*
X182206030Y-100614469D01*
G37*
G36*
X128596030Y-100474469D02*
X128596033Y-100474470D01*
X128596034Y-100474470D01*
X128784535Y-100531651D01*
X128784537Y-100531652D01*
X128958260Y-100624509D01*
X129110528Y-100749472D01*
X129235491Y-100901740D01*
X129328348Y-101075463D01*
X129385531Y-101263970D01*
X129404838Y-101460000D01*
X129385531Y-101656030D01*
X129385530Y-101656033D01*
X129385530Y-101656034D01*
X129343062Y-101796034D01*
X129328348Y-101844537D01*
X129235491Y-102018260D01*
X129110528Y-102170528D01*
X128958260Y-102295491D01*
X128784537Y-102388348D01*
X128784535Y-102388349D01*
X128596034Y-102445530D01*
X128596033Y-102445530D01*
X128596030Y-102445531D01*
X128449124Y-102460000D01*
X127550876Y-102460000D01*
X127403970Y-102445531D01*
X127403967Y-102445530D01*
X127403966Y-102445530D01*
X127215465Y-102388349D01*
X127215463Y-102388348D01*
X127041740Y-102295491D01*
X126889472Y-102170528D01*
X126764509Y-102018260D01*
X126671652Y-101844537D01*
X126656939Y-101796034D01*
X126614470Y-101656034D01*
X126614470Y-101656033D01*
X126614469Y-101656030D01*
X126595162Y-101460000D01*
X126614469Y-101263970D01*
X126671652Y-101075463D01*
X126764509Y-100901740D01*
X126889472Y-100749472D01*
X127041740Y-100624509D01*
X127215463Y-100531652D01*
X127215465Y-100531651D01*
X127403966Y-100474470D01*
X127403967Y-100474470D01*
X127403970Y-100474469D01*
X127550876Y-100460000D01*
X128449124Y-100460000D01*
X128596030Y-100474469D01*
X128596030Y-100474469D01*
G37*
G36*
X182206030Y-98074469D02*
X182206033Y-98074470D01*
X182206034Y-98074470D01*
X182394535Y-98131651D01*
X182394537Y-98131652D01*
X182568260Y-98224509D01*
X182720528Y-98349472D01*
X182845491Y-98501740D01*
X182845492Y-98501742D01*
X182938349Y-98675465D01*
X182995060Y-98862418D01*
X182995531Y-98863970D01*
X183014838Y-99060000D01*
X182995531Y-99256030D01*
X182995530Y-99256033D01*
X182995530Y-99256034D01*
X182948942Y-99409616D01*
X182938348Y-99444537D01*
X182845491Y-99618260D01*
X182720528Y-99770528D01*
X182568260Y-99895491D01*
X182522407Y-99920000D01*
X182394535Y-99988349D01*
X182206034Y-100045530D01*
X182206033Y-100045530D01*
X182206030Y-100045531D01*
X182059124Y-100060000D01*
X181160876Y-100060000D01*
X181013970Y-100045531D01*
X181013967Y-100045530D01*
X181013966Y-100045530D01*
X180825465Y-99988349D01*
X180697593Y-99920000D01*
X180651740Y-99895491D01*
X180499472Y-99770528D01*
X180374509Y-99618260D01*
X180281652Y-99444537D01*
X180271059Y-99409616D01*
X180224470Y-99256034D01*
X180224470Y-99256033D01*
X180224469Y-99256030D01*
X180205162Y-99060000D01*
X180224469Y-98863970D01*
X180224940Y-98862418D01*
X180281651Y-98675465D01*
X180374508Y-98501742D01*
X180374509Y-98501740D01*
X180499472Y-98349472D01*
X180651740Y-98224509D01*
X180825463Y-98131652D01*
X180825465Y-98131651D01*
X181013966Y-98074470D01*
X181013967Y-98074470D01*
X181013970Y-98074469D01*
X181160876Y-98060000D01*
X182059124Y-98060000D01*
X182206030Y-98074469D01*
X182206030Y-98074469D01*
G37*
G36*
X128596030Y-97934469D02*
X128596033Y-97934470D01*
X128596034Y-97934470D01*
X128784535Y-97991651D01*
X128784537Y-97991652D01*
X128958260Y-98084509D01*
X129110528Y-98209472D01*
X129235491Y-98361740D01*
X129328348Y-98535463D01*
X129385531Y-98723970D01*
X129404838Y-98920000D01*
X129385531Y-99116030D01*
X129385530Y-99116033D01*
X129385530Y-99116034D01*
X129343062Y-99256034D01*
X129328348Y-99304537D01*
X129235491Y-99478260D01*
X129110528Y-99630528D01*
X128958260Y-99755491D01*
X128958258Y-99755492D01*
X128784535Y-99848349D01*
X128596034Y-99905530D01*
X128596033Y-99905530D01*
X128596030Y-99905531D01*
X128449124Y-99920000D01*
X127550876Y-99920000D01*
X127403970Y-99905531D01*
X127403967Y-99905530D01*
X127403966Y-99905530D01*
X127215465Y-99848349D01*
X127041742Y-99755492D01*
X127041740Y-99755491D01*
X126889472Y-99630528D01*
X126764509Y-99478260D01*
X126671652Y-99304537D01*
X126656939Y-99256034D01*
X126614470Y-99116034D01*
X126614470Y-99116033D01*
X126614469Y-99116030D01*
X126595162Y-98920000D01*
X126614469Y-98723970D01*
X126671652Y-98535463D01*
X126764509Y-98361740D01*
X126889472Y-98209472D01*
X127041740Y-98084509D01*
X127215463Y-97991652D01*
X127215465Y-97991651D01*
X127403966Y-97934470D01*
X127403967Y-97934470D01*
X127403970Y-97934469D01*
X127550876Y-97920000D01*
X128449124Y-97920000D01*
X128596030Y-97934469D01*
X128596030Y-97934469D01*
G37*
G36*
X211061716Y-95344544D02*
X211462090Y-95510384D01*
X211822421Y-95751150D01*
X212128850Y-96057579D01*
X212369616Y-96417910D01*
X212535456Y-96818284D01*
X212620000Y-97243317D01*
X212620000Y-97676683D01*
X212535456Y-98101716D01*
X212369616Y-98502090D01*
X212128850Y-98862421D01*
X211822421Y-99168850D01*
X211462090Y-99409616D01*
X211061716Y-99575456D01*
X210636683Y-99660000D01*
X210203317Y-99660000D01*
X209778284Y-99575456D01*
X209377910Y-99409616D01*
X209017579Y-99168850D01*
X208711150Y-98862421D01*
X208470384Y-98502090D01*
X208304544Y-98101716D01*
X208220000Y-97676683D01*
X208220000Y-97243317D01*
X208304544Y-96818284D01*
X208470384Y-96417910D01*
X208711150Y-96057579D01*
X209017579Y-95751150D01*
X209377910Y-95510384D01*
X209778284Y-95344544D01*
X210203317Y-95260000D01*
X210636683Y-95260000D01*
X211061716Y-95344544D01*
X211061716Y-95344544D01*
G37*
G36*
X182206030Y-95534469D02*
X182206033Y-95534470D01*
X182206034Y-95534470D01*
X182394535Y-95591651D01*
X182394537Y-95591652D01*
X182568260Y-95684509D01*
X182720528Y-95809472D01*
X182845491Y-95961740D01*
X182845492Y-95961742D01*
X182938349Y-96135465D01*
X182995530Y-96323966D01*
X182995531Y-96323970D01*
X183014838Y-96520000D01*
X182995531Y-96716030D01*
X182938348Y-96904537D01*
X182845491Y-97078260D01*
X182720528Y-97230528D01*
X182568260Y-97355491D01*
X182522407Y-97380000D01*
X182394535Y-97448349D01*
X182206034Y-97505530D01*
X182206033Y-97505530D01*
X182206030Y-97505531D01*
X182059124Y-97520000D01*
X181160876Y-97520000D01*
X181013970Y-97505531D01*
X181013967Y-97505530D01*
X181013966Y-97505530D01*
X180825465Y-97448349D01*
X180697593Y-97380000D01*
X180651740Y-97355491D01*
X180499472Y-97230528D01*
X180374509Y-97078260D01*
X180281652Y-96904537D01*
X180224469Y-96716030D01*
X180205162Y-96520000D01*
X180224469Y-96323970D01*
X180224470Y-96323966D01*
X180281651Y-96135465D01*
X180374508Y-95961742D01*
X180374509Y-95961740D01*
X180499472Y-95809472D01*
X180651740Y-95684509D01*
X180825463Y-95591652D01*
X180825465Y-95591651D01*
X181013966Y-95534470D01*
X181013967Y-95534470D01*
X181013970Y-95534469D01*
X181160876Y-95520000D01*
X182059124Y-95520000D01*
X182206030Y-95534469D01*
X182206030Y-95534469D01*
G37*
G36*
X128596030Y-95394469D02*
X128596033Y-95394470D01*
X128596034Y-95394470D01*
X128784535Y-95451651D01*
X128784537Y-95451652D01*
X128958260Y-95544509D01*
X129110528Y-95669472D01*
X129235491Y-95821740D01*
X129328348Y-95995463D01*
X129385531Y-96183970D01*
X129404838Y-96380000D01*
X129385531Y-96576030D01*
X129385530Y-96576033D01*
X129385530Y-96576034D01*
X129343062Y-96716034D01*
X129328348Y-96764537D01*
X129235491Y-96938260D01*
X129110528Y-97090528D01*
X128958260Y-97215491D01*
X128784537Y-97308348D01*
X128784535Y-97308349D01*
X128596034Y-97365530D01*
X128596033Y-97365530D01*
X128596030Y-97365531D01*
X128449124Y-97380000D01*
X127550876Y-97380000D01*
X127403970Y-97365531D01*
X127403967Y-97365530D01*
X127403966Y-97365530D01*
X127215465Y-97308349D01*
X127215463Y-97308348D01*
X127041740Y-97215491D01*
X126889472Y-97090528D01*
X126764509Y-96938260D01*
X126671652Y-96764537D01*
X126656939Y-96716034D01*
X126614470Y-96576034D01*
X126614470Y-96576033D01*
X126614469Y-96576030D01*
X126595162Y-96380000D01*
X126614469Y-96183970D01*
X126671652Y-95995463D01*
X126764509Y-95821740D01*
X126889472Y-95669472D01*
X127041740Y-95544509D01*
X127215463Y-95451652D01*
X127215465Y-95451651D01*
X127403966Y-95394470D01*
X127403967Y-95394470D01*
X127403970Y-95394469D01*
X127550876Y-95380000D01*
X128449124Y-95380000D01*
X128596030Y-95394469D01*
X128596030Y-95394469D01*
G37*
G36*
X182206030Y-92994469D02*
X182206033Y-92994470D01*
X182206034Y-92994470D01*
X182394535Y-93051651D01*
X182394537Y-93051652D01*
X182568260Y-93144509D01*
X182720528Y-93269472D01*
X182845491Y-93421740D01*
X182938348Y-93595463D01*
X182995531Y-93783970D01*
X183014838Y-93980000D01*
X182995531Y-94176030D01*
X182938348Y-94364537D01*
X182845491Y-94538260D01*
X182720528Y-94690528D01*
X182568260Y-94815491D01*
X182568258Y-94815492D01*
X182394535Y-94908349D01*
X182206034Y-94965530D01*
X182206033Y-94965530D01*
X182206030Y-94965531D01*
X182059124Y-94980000D01*
X181160876Y-94980000D01*
X181013970Y-94965531D01*
X181013967Y-94965530D01*
X181013966Y-94965530D01*
X180825465Y-94908349D01*
X180651742Y-94815492D01*
X180651740Y-94815491D01*
X180499472Y-94690528D01*
X180374509Y-94538260D01*
X180281652Y-94364537D01*
X180224469Y-94176030D01*
X180205162Y-93980000D01*
X180224469Y-93783970D01*
X180281652Y-93595463D01*
X180374509Y-93421740D01*
X180499472Y-93269472D01*
X180651740Y-93144509D01*
X180825463Y-93051652D01*
X180825465Y-93051651D01*
X181013966Y-92994470D01*
X181013967Y-92994470D01*
X181013970Y-92994469D01*
X181160876Y-92980000D01*
X182059124Y-92980000D01*
X182206030Y-92994469D01*
X182206030Y-92994469D01*
G37*
G36*
X182206030Y-90454469D02*
X182206033Y-90454470D01*
X182206034Y-90454470D01*
X182394535Y-90511651D01*
X182394537Y-90511652D01*
X182568260Y-90604509D01*
X182720528Y-90729472D01*
X182845491Y-90881740D01*
X182938348Y-91055463D01*
X182995531Y-91243970D01*
X183014838Y-91440000D01*
X182995531Y-91636030D01*
X182938348Y-91824537D01*
X182845491Y-91998260D01*
X182720528Y-92150528D01*
X182568260Y-92275491D01*
X182568258Y-92275492D01*
X182394535Y-92368349D01*
X182206034Y-92425530D01*
X182206033Y-92425530D01*
X182206030Y-92425531D01*
X182059124Y-92440000D01*
X181160876Y-92440000D01*
X181013970Y-92425531D01*
X181013967Y-92425530D01*
X181013966Y-92425530D01*
X180825465Y-92368349D01*
X180651742Y-92275492D01*
X180651740Y-92275491D01*
X180499472Y-92150528D01*
X180374509Y-91998260D01*
X180281652Y-91824537D01*
X180224469Y-91636030D01*
X180205162Y-91440000D01*
X180224469Y-91243970D01*
X180281652Y-91055463D01*
X180374509Y-90881740D01*
X180499472Y-90729472D01*
X180651740Y-90604509D01*
X180825463Y-90511652D01*
X180825465Y-90511651D01*
X181013966Y-90454470D01*
X181013967Y-90454470D01*
X181013970Y-90454469D01*
X181160876Y-90440000D01*
X182059124Y-90440000D01*
X182206030Y-90454469D01*
X182206030Y-90454469D01*
G37*
G36*
X210000000Y-91500000D02*
X208000000Y-91500000D01*
X208000000Y-89500000D01*
X210000000Y-89500000D01*
X210000000Y-91500000D01*
X210000000Y-91500000D01*
G37*
G36*
X212015770Y-88130372D02*
X212131689Y-88153429D01*
X212313678Y-88228811D01*
X212477463Y-88338249D01*
X212616751Y-88477537D01*
X212726189Y-88641322D01*
X212801571Y-88823311D01*
X212840000Y-89016509D01*
X212840000Y-89213491D01*
X212801571Y-89406689D01*
X212726189Y-89588678D01*
X212616751Y-89752463D01*
X212477463Y-89891751D01*
X212313678Y-90001189D01*
X212131689Y-90076571D01*
X212015770Y-90099628D01*
X211938493Y-90115000D01*
X211741507Y-90115000D01*
X211664230Y-90099628D01*
X211548311Y-90076571D01*
X211366322Y-90001189D01*
X211202537Y-89891751D01*
X211063249Y-89752463D01*
X210953811Y-89588678D01*
X210878429Y-89406689D01*
X210840000Y-89213491D01*
X210840000Y-89016509D01*
X210878429Y-88823311D01*
X210953811Y-88641322D01*
X211063249Y-88477537D01*
X211202537Y-88338249D01*
X211366322Y-88228811D01*
X211548311Y-88153429D01*
X211664230Y-88130372D01*
X211741507Y-88115000D01*
X211938493Y-88115000D01*
X212015770Y-88130372D01*
X212015770Y-88130372D01*
G37*
G36*
X182206030Y-87914469D02*
X182206033Y-87914470D01*
X182206034Y-87914470D01*
X182394535Y-87971651D01*
X182394537Y-87971652D01*
X182568260Y-88064509D01*
X182720528Y-88189472D01*
X182845491Y-88341740D01*
X182938348Y-88515463D01*
X182995531Y-88703970D01*
X183014838Y-88900000D01*
X182995531Y-89096030D01*
X182938348Y-89284537D01*
X182845491Y-89458260D01*
X182720528Y-89610528D01*
X182568260Y-89735491D01*
X182568258Y-89735492D01*
X182394535Y-89828349D01*
X182206034Y-89885530D01*
X182206033Y-89885530D01*
X182206030Y-89885531D01*
X182059124Y-89900000D01*
X181160876Y-89900000D01*
X181013970Y-89885531D01*
X181013967Y-89885530D01*
X181013966Y-89885530D01*
X180825465Y-89828349D01*
X180651742Y-89735492D01*
X180651740Y-89735491D01*
X180499472Y-89610528D01*
X180374509Y-89458260D01*
X180281652Y-89284537D01*
X180224469Y-89096030D01*
X180205162Y-88900000D01*
X180224469Y-88703970D01*
X180281652Y-88515463D01*
X180374509Y-88341740D01*
X180499472Y-88189472D01*
X180651740Y-88064509D01*
X180825463Y-87971652D01*
X180825465Y-87971651D01*
X181013966Y-87914470D01*
X181013967Y-87914470D01*
X181013970Y-87914469D01*
X181160876Y-87900000D01*
X182059124Y-87900000D01*
X182206030Y-87914469D01*
X182206030Y-87914469D01*
G37*
G36*
X209171564Y-86744535D02*
X209291689Y-86768429D01*
X209473678Y-86843811D01*
X209637463Y-86953249D01*
X209776751Y-87092537D01*
X209886189Y-87256322D01*
X209961571Y-87438311D01*
X210000000Y-87631509D01*
X210000000Y-87828491D01*
X209961571Y-88021689D01*
X209886189Y-88203678D01*
X209776751Y-88367463D01*
X209637463Y-88506751D01*
X209473678Y-88616189D01*
X209291689Y-88691571D01*
X209175770Y-88714628D01*
X209098493Y-88730000D01*
X208901507Y-88730000D01*
X208824230Y-88714628D01*
X208708311Y-88691571D01*
X208526322Y-88616189D01*
X208362537Y-88506751D01*
X208223249Y-88367463D01*
X208113811Y-88203678D01*
X208038429Y-88021689D01*
X208000000Y-87828491D01*
X208000000Y-87631509D01*
X208038429Y-87438311D01*
X208113811Y-87256322D01*
X208223249Y-87092537D01*
X208362537Y-86953249D01*
X208526322Y-86843811D01*
X208708311Y-86768429D01*
X208828436Y-86744535D01*
X208901507Y-86730000D01*
X209098493Y-86730000D01*
X209171564Y-86744535D01*
X209171564Y-86744535D01*
G37*
G36*
X182206030Y-85374469D02*
X182206033Y-85374470D01*
X182206034Y-85374470D01*
X182394535Y-85431651D01*
X182394537Y-85431652D01*
X182568260Y-85524509D01*
X182720528Y-85649472D01*
X182845491Y-85801740D01*
X182938348Y-85975463D01*
X182995531Y-86163970D01*
X183014838Y-86360000D01*
X182995531Y-86556030D01*
X182995530Y-86556033D01*
X182995530Y-86556034D01*
X182971064Y-86636689D01*
X182938348Y-86744537D01*
X182845491Y-86918260D01*
X182720528Y-87070528D01*
X182568260Y-87195491D01*
X182568258Y-87195492D01*
X182394535Y-87288349D01*
X182206034Y-87345530D01*
X182206033Y-87345530D01*
X182206030Y-87345531D01*
X182059124Y-87360000D01*
X181160876Y-87360000D01*
X181013970Y-87345531D01*
X181013967Y-87345530D01*
X181013966Y-87345530D01*
X180825465Y-87288349D01*
X180651742Y-87195492D01*
X180651740Y-87195491D01*
X180499472Y-87070528D01*
X180374509Y-86918260D01*
X180281652Y-86744537D01*
X180248937Y-86636689D01*
X180224470Y-86556034D01*
X180224470Y-86556033D01*
X180224469Y-86556030D01*
X180205162Y-86360000D01*
X180224469Y-86163970D01*
X180281652Y-85975463D01*
X180374509Y-85801740D01*
X180499472Y-85649472D01*
X180651740Y-85524509D01*
X180825463Y-85431652D01*
X180825465Y-85431651D01*
X181013966Y-85374470D01*
X181013967Y-85374470D01*
X181013970Y-85374469D01*
X181160876Y-85360000D01*
X182059124Y-85360000D01*
X182206030Y-85374469D01*
X182206030Y-85374469D01*
G37*
G36*
X212013902Y-85360000D02*
X212131689Y-85383429D01*
X212313678Y-85458811D01*
X212477463Y-85568249D01*
X212616751Y-85707537D01*
X212726189Y-85871322D01*
X212801571Y-86053311D01*
X212840000Y-86246509D01*
X212840000Y-86443491D01*
X212801571Y-86636689D01*
X212726189Y-86818678D01*
X212616751Y-86982463D01*
X212477463Y-87121751D01*
X212313678Y-87231189D01*
X212131689Y-87306571D01*
X212015770Y-87329628D01*
X211938493Y-87345000D01*
X211741507Y-87345000D01*
X211664230Y-87329628D01*
X211548311Y-87306571D01*
X211366322Y-87231189D01*
X211202537Y-87121751D01*
X211063249Y-86982463D01*
X210953811Y-86818678D01*
X210878429Y-86636689D01*
X210840000Y-86443491D01*
X210840000Y-86246509D01*
X210878429Y-86053311D01*
X210953811Y-85871322D01*
X211063249Y-85707537D01*
X211202537Y-85568249D01*
X211366322Y-85458811D01*
X211548311Y-85383429D01*
X211666098Y-85360000D01*
X211741507Y-85345000D01*
X211938493Y-85345000D01*
X212013902Y-85360000D01*
X212013902Y-85360000D01*
G37*
G36*
X209175770Y-83975372D02*
X209291689Y-83998429D01*
X209473678Y-84073811D01*
X209637463Y-84183249D01*
X209776751Y-84322537D01*
X209886189Y-84486322D01*
X209961571Y-84668311D01*
X209977491Y-84748348D01*
X209991744Y-84820000D01*
X210000000Y-84861509D01*
X210000000Y-85058491D01*
X209961571Y-85251689D01*
X209886189Y-85433678D01*
X209776751Y-85597463D01*
X209637463Y-85736751D01*
X209473678Y-85846189D01*
X209291689Y-85921571D01*
X209175770Y-85944628D01*
X209098493Y-85960000D01*
X208901507Y-85960000D01*
X208824230Y-85944628D01*
X208708311Y-85921571D01*
X208526322Y-85846189D01*
X208362537Y-85736751D01*
X208223249Y-85597463D01*
X208113811Y-85433678D01*
X208038429Y-85251689D01*
X208000000Y-85058491D01*
X208000000Y-84861509D01*
X208008257Y-84820000D01*
X208022509Y-84748348D01*
X208038429Y-84668311D01*
X208113811Y-84486322D01*
X208223249Y-84322537D01*
X208362537Y-84183249D01*
X208526322Y-84073811D01*
X208708311Y-83998429D01*
X208824230Y-83975372D01*
X208901507Y-83960000D01*
X209098493Y-83960000D01*
X209175770Y-83975372D01*
X209175770Y-83975372D01*
G37*
G36*
X175456029Y-82434469D02*
X175456032Y-82434470D01*
X175456033Y-82434470D01*
X175644534Y-82491651D01*
X175644536Y-82491652D01*
X175644539Y-82491653D01*
X175818258Y-82584507D01*
X175970528Y-82709472D01*
X176095491Y-82861740D01*
X176095492Y-82861742D01*
X176188349Y-83035465D01*
X176245530Y-83223966D01*
X176245531Y-83223970D01*
X176260000Y-83370876D01*
X176260000Y-84269123D01*
X176245531Y-84416031D01*
X176188349Y-84604536D01*
X176095491Y-84778260D01*
X175970528Y-84930528D01*
X175818260Y-85055491D01*
X175818258Y-85055492D01*
X175644535Y-85148349D01*
X175456034Y-85205530D01*
X175456033Y-85205530D01*
X175456030Y-85205531D01*
X175260000Y-85224838D01*
X175063971Y-85205531D01*
X175063968Y-85205530D01*
X175063967Y-85205530D01*
X174875466Y-85148349D01*
X174701743Y-85055492D01*
X174701741Y-85055491D01*
X174549473Y-84930528D01*
X174424510Y-84778260D01*
X174331651Y-84604533D01*
X174274469Y-84416035D01*
X174260000Y-84269124D01*
X174260000Y-83370877D01*
X174274469Y-83223971D01*
X174274470Y-83223967D01*
X174331651Y-83035466D01*
X174331652Y-83035464D01*
X174331653Y-83035461D01*
X174424507Y-82861742D01*
X174549472Y-82709472D01*
X174701740Y-82584509D01*
X174875463Y-82491652D01*
X174875465Y-82491651D01*
X175063966Y-82434470D01*
X175063967Y-82434470D01*
X175063970Y-82434469D01*
X175260000Y-82415162D01*
X175456029Y-82434469D01*
X175456029Y-82434469D01*
G37*
G36*
X165296029Y-82434469D02*
X165296032Y-82434470D01*
X165296033Y-82434470D01*
X165484534Y-82491651D01*
X165484536Y-82491652D01*
X165484539Y-82491653D01*
X165658258Y-82584507D01*
X165810528Y-82709472D01*
X165935491Y-82861740D01*
X165935492Y-82861742D01*
X166028349Y-83035465D01*
X166085530Y-83223966D01*
X166085531Y-83223970D01*
X166100000Y-83370876D01*
X166100000Y-84269123D01*
X166085531Y-84416031D01*
X166028349Y-84604536D01*
X165935491Y-84778260D01*
X165810528Y-84930528D01*
X165658260Y-85055491D01*
X165658258Y-85055492D01*
X165484535Y-85148349D01*
X165296034Y-85205530D01*
X165296033Y-85205530D01*
X165296030Y-85205531D01*
X165100000Y-85224838D01*
X164903971Y-85205531D01*
X164903968Y-85205530D01*
X164903967Y-85205530D01*
X164715466Y-85148349D01*
X164541743Y-85055492D01*
X164541741Y-85055491D01*
X164389473Y-84930528D01*
X164264510Y-84778260D01*
X164171651Y-84604533D01*
X164114469Y-84416035D01*
X164100000Y-84269124D01*
X164100000Y-83370877D01*
X164114469Y-83223971D01*
X164114470Y-83223967D01*
X164171651Y-83035466D01*
X164171652Y-83035464D01*
X164171653Y-83035461D01*
X164264507Y-82861742D01*
X164389472Y-82709472D01*
X164541740Y-82584509D01*
X164715463Y-82491652D01*
X164715465Y-82491651D01*
X164903966Y-82434470D01*
X164903967Y-82434470D01*
X164903970Y-82434469D01*
X165100000Y-82415162D01*
X165296029Y-82434469D01*
X165296029Y-82434469D01*
G37*
G36*
X167836029Y-82434469D02*
X167836032Y-82434470D01*
X167836033Y-82434470D01*
X168024534Y-82491651D01*
X168024536Y-82491652D01*
X168024539Y-82491653D01*
X168198258Y-82584507D01*
X168350528Y-82709472D01*
X168475491Y-82861740D01*
X168475492Y-82861742D01*
X168568349Y-83035465D01*
X168625530Y-83223966D01*
X168625531Y-83223970D01*
X168640000Y-83370876D01*
X168640000Y-84269123D01*
X168625531Y-84416031D01*
X168568349Y-84604536D01*
X168475491Y-84778260D01*
X168350528Y-84930528D01*
X168198260Y-85055491D01*
X168198258Y-85055492D01*
X168024535Y-85148349D01*
X167836034Y-85205530D01*
X167836033Y-85205530D01*
X167836030Y-85205531D01*
X167640000Y-85224838D01*
X167443971Y-85205531D01*
X167443968Y-85205530D01*
X167443967Y-85205530D01*
X167255466Y-85148349D01*
X167081743Y-85055492D01*
X167081741Y-85055491D01*
X166929473Y-84930528D01*
X166804510Y-84778260D01*
X166711651Y-84604533D01*
X166654469Y-84416035D01*
X166640000Y-84269124D01*
X166640000Y-83370877D01*
X166654469Y-83223971D01*
X166654470Y-83223967D01*
X166711651Y-83035466D01*
X166711652Y-83035464D01*
X166711653Y-83035461D01*
X166804507Y-82861742D01*
X166929472Y-82709472D01*
X167081740Y-82584509D01*
X167255463Y-82491652D01*
X167255465Y-82491651D01*
X167443966Y-82434470D01*
X167443967Y-82434470D01*
X167443970Y-82434469D01*
X167640000Y-82415162D01*
X167836029Y-82434469D01*
X167836029Y-82434469D01*
G37*
G36*
X170376029Y-82434469D02*
X170376032Y-82434470D01*
X170376033Y-82434470D01*
X170564534Y-82491651D01*
X170564536Y-82491652D01*
X170564539Y-82491653D01*
X170738258Y-82584507D01*
X170890528Y-82709472D01*
X171015491Y-82861740D01*
X171015492Y-82861742D01*
X171108349Y-83035465D01*
X171165530Y-83223966D01*
X171165531Y-83223970D01*
X171180000Y-83370876D01*
X171180000Y-84269123D01*
X171165531Y-84416031D01*
X171108349Y-84604536D01*
X171015491Y-84778260D01*
X170890528Y-84930528D01*
X170738260Y-85055491D01*
X170738258Y-85055492D01*
X170564535Y-85148349D01*
X170376034Y-85205530D01*
X170376033Y-85205530D01*
X170376030Y-85205531D01*
X170180000Y-85224838D01*
X169983971Y-85205531D01*
X169983968Y-85205530D01*
X169983967Y-85205530D01*
X169795466Y-85148349D01*
X169621743Y-85055492D01*
X169621741Y-85055491D01*
X169469473Y-84930528D01*
X169344510Y-84778260D01*
X169251651Y-84604533D01*
X169194469Y-84416035D01*
X169180000Y-84269124D01*
X169180000Y-83370877D01*
X169194469Y-83223971D01*
X169194470Y-83223967D01*
X169251651Y-83035466D01*
X169251652Y-83035464D01*
X169251653Y-83035461D01*
X169344507Y-82861742D01*
X169469472Y-82709472D01*
X169621740Y-82584509D01*
X169795463Y-82491652D01*
X169795465Y-82491651D01*
X169983966Y-82434470D01*
X169983967Y-82434470D01*
X169983970Y-82434469D01*
X170180000Y-82415162D01*
X170376029Y-82434469D01*
X170376029Y-82434469D01*
G37*
G36*
X172916029Y-82434469D02*
X172916032Y-82434470D01*
X172916033Y-82434470D01*
X173104534Y-82491651D01*
X173104536Y-82491652D01*
X173104539Y-82491653D01*
X173278258Y-82584507D01*
X173430528Y-82709472D01*
X173555491Y-82861740D01*
X173555492Y-82861742D01*
X173648349Y-83035465D01*
X173705530Y-83223966D01*
X173705531Y-83223970D01*
X173720000Y-83370876D01*
X173720000Y-84269123D01*
X173705531Y-84416031D01*
X173648349Y-84604536D01*
X173555491Y-84778260D01*
X173430528Y-84930528D01*
X173278260Y-85055491D01*
X173278258Y-85055492D01*
X173104535Y-85148349D01*
X172916034Y-85205530D01*
X172916033Y-85205530D01*
X172916030Y-85205531D01*
X172720000Y-85224838D01*
X172523971Y-85205531D01*
X172523968Y-85205530D01*
X172523967Y-85205530D01*
X172335466Y-85148349D01*
X172161743Y-85055492D01*
X172161741Y-85055491D01*
X172009473Y-84930528D01*
X171884510Y-84778260D01*
X171791651Y-84604533D01*
X171734469Y-84416035D01*
X171720000Y-84269124D01*
X171720000Y-83370877D01*
X171734469Y-83223971D01*
X171734470Y-83223967D01*
X171791651Y-83035466D01*
X171791652Y-83035464D01*
X171791653Y-83035461D01*
X171884507Y-82861742D01*
X172009472Y-82709472D01*
X172161740Y-82584509D01*
X172335463Y-82491652D01*
X172335465Y-82491651D01*
X172523966Y-82434470D01*
X172523967Y-82434470D01*
X172523970Y-82434469D01*
X172720000Y-82415162D01*
X172916029Y-82434469D01*
X172916029Y-82434469D01*
G37*
G36*
X163560000Y-85220000D02*
X161560000Y-85220000D01*
X161560000Y-82420000D01*
X163560000Y-82420000D01*
X163560000Y-85220000D01*
X163560000Y-85220000D01*
G37*
G36*
X182206030Y-82834469D02*
X182206033Y-82834470D01*
X182206034Y-82834470D01*
X182394535Y-82891651D01*
X182394537Y-82891652D01*
X182568260Y-82984509D01*
X182720528Y-83109472D01*
X182845491Y-83261740D01*
X182903825Y-83370876D01*
X182938349Y-83435465D01*
X182995530Y-83623966D01*
X182995531Y-83623970D01*
X183014838Y-83820000D01*
X182995531Y-84016030D01*
X182995530Y-84016033D01*
X182995530Y-84016034D01*
X182944805Y-84183253D01*
X182938348Y-84204537D01*
X182845491Y-84378260D01*
X182720528Y-84530528D01*
X182568260Y-84655491D01*
X182568258Y-84655492D01*
X182394535Y-84748349D01*
X182206034Y-84805530D01*
X182206033Y-84805530D01*
X182206030Y-84805531D01*
X182059124Y-84820000D01*
X181160876Y-84820000D01*
X181013970Y-84805531D01*
X181013967Y-84805530D01*
X181013966Y-84805530D01*
X180825465Y-84748349D01*
X180651742Y-84655492D01*
X180651740Y-84655491D01*
X180499472Y-84530528D01*
X180374509Y-84378260D01*
X180281652Y-84204537D01*
X180275196Y-84183253D01*
X180224470Y-84016034D01*
X180224470Y-84016033D01*
X180224469Y-84016030D01*
X180205162Y-83820000D01*
X180224469Y-83623970D01*
X180224470Y-83623966D01*
X180281651Y-83435465D01*
X180316175Y-83370876D01*
X180374509Y-83261740D01*
X180499472Y-83109472D01*
X180651740Y-82984509D01*
X180825463Y-82891652D01*
X180825465Y-82891651D01*
X181013966Y-82834470D01*
X181013967Y-82834470D01*
X181013970Y-82834469D01*
X181160876Y-82820000D01*
X182059124Y-82820000D01*
X182206030Y-82834469D01*
X182206030Y-82834469D01*
G37*
G36*
X211986287Y-82584507D02*
X212131689Y-82613429D01*
X212313678Y-82688811D01*
X212477463Y-82798249D01*
X212616751Y-82937537D01*
X212726189Y-83101322D01*
X212801571Y-83283311D01*
X212840000Y-83476509D01*
X212840000Y-83673491D01*
X212801571Y-83866689D01*
X212726189Y-84048678D01*
X212616751Y-84212463D01*
X212477463Y-84351751D01*
X212313678Y-84461189D01*
X212131689Y-84536571D01*
X212015770Y-84559628D01*
X211938493Y-84575000D01*
X211741507Y-84575000D01*
X211664230Y-84559628D01*
X211548311Y-84536571D01*
X211366322Y-84461189D01*
X211202537Y-84351751D01*
X211063249Y-84212463D01*
X210953811Y-84048678D01*
X210878429Y-83866689D01*
X210840000Y-83673491D01*
X210840000Y-83476509D01*
X210878429Y-83283311D01*
X210953811Y-83101322D01*
X211063249Y-82937537D01*
X211202537Y-82798249D01*
X211366322Y-82688811D01*
X211548311Y-82613429D01*
X211693713Y-82584507D01*
X211741507Y-82575000D01*
X211938493Y-82575000D01*
X211986287Y-82584507D01*
X211986287Y-82584507D01*
G37*
G36*
X209175770Y-81205372D02*
X209291689Y-81228429D01*
X209473678Y-81303811D01*
X209637463Y-81413249D01*
X209776751Y-81552537D01*
X209886189Y-81716322D01*
X209961571Y-81898311D01*
X210000000Y-82091509D01*
X210000000Y-82288491D01*
X209961571Y-82481689D01*
X209886189Y-82663678D01*
X209776751Y-82827463D01*
X209637463Y-82966751D01*
X209473678Y-83076189D01*
X209291689Y-83151571D01*
X209175770Y-83174628D01*
X209098493Y-83190000D01*
X208901507Y-83190000D01*
X208824230Y-83174628D01*
X208708311Y-83151571D01*
X208526322Y-83076189D01*
X208362537Y-82966751D01*
X208223249Y-82827463D01*
X208113811Y-82663678D01*
X208038429Y-82481689D01*
X208000000Y-82288491D01*
X208000000Y-82091509D01*
X208038429Y-81898311D01*
X208113811Y-81716322D01*
X208223249Y-81552537D01*
X208362537Y-81413249D01*
X208526322Y-81303811D01*
X208708311Y-81228429D01*
X208824230Y-81205372D01*
X208901507Y-81190000D01*
X209098493Y-81190000D01*
X209175770Y-81205372D01*
X209175770Y-81205372D01*
G37*
G36*
X195776029Y-79844469D02*
X195776032Y-79844470D01*
X195776033Y-79844470D01*
X195964534Y-79901651D01*
X195964536Y-79901652D01*
X195964539Y-79901653D01*
X196138258Y-79994507D01*
X196290528Y-80119472D01*
X196415491Y-80271740D01*
X196507838Y-80444509D01*
X196508349Y-80445465D01*
X196539558Y-80548348D01*
X196565531Y-80633970D01*
X196580000Y-80780876D01*
X196580000Y-81779123D01*
X196565531Y-81926030D01*
X196565530Y-81926033D01*
X196565530Y-81926034D01*
X196508350Y-82114533D01*
X196508348Y-82114537D01*
X196415491Y-82288260D01*
X196290528Y-82440528D01*
X196138260Y-82565491D01*
X196102682Y-82584508D01*
X195964535Y-82658349D01*
X195776034Y-82715530D01*
X195776033Y-82715530D01*
X195776030Y-82715531D01*
X195580000Y-82734838D01*
X195383971Y-82715531D01*
X195383968Y-82715530D01*
X195383967Y-82715530D01*
X195195466Y-82658349D01*
X195057319Y-82584508D01*
X195021741Y-82565491D01*
X194869473Y-82440528D01*
X194744510Y-82288260D01*
X194651651Y-82114533D01*
X194594469Y-81926035D01*
X194580000Y-81779124D01*
X194580000Y-80780877D01*
X194594469Y-80633971D01*
X194594470Y-80633967D01*
X194651651Y-80445466D01*
X194651652Y-80445464D01*
X194651653Y-80445461D01*
X194744507Y-80271742D01*
X194869472Y-80119472D01*
X195021740Y-79994509D01*
X195195463Y-79901652D01*
X195195465Y-79901651D01*
X195383966Y-79844470D01*
X195383967Y-79844470D01*
X195383970Y-79844469D01*
X195580000Y-79825162D01*
X195776029Y-79844469D01*
X195776029Y-79844469D01*
G37*
G36*
X200856029Y-79894469D02*
X200856032Y-79894470D01*
X200856033Y-79894470D01*
X201044534Y-79951651D01*
X201044536Y-79951652D01*
X201044539Y-79951653D01*
X201218258Y-80044507D01*
X201370528Y-80169472D01*
X201495491Y-80321740D01*
X201495492Y-80321742D01*
X201588349Y-80495465D01*
X201630363Y-80633967D01*
X201645531Y-80683970D01*
X201660000Y-80830876D01*
X201660000Y-81729123D01*
X201645531Y-81876031D01*
X201588349Y-82064536D01*
X201495491Y-82238260D01*
X201370528Y-82390528D01*
X201218260Y-82515491D01*
X201044537Y-82608348D01*
X201044535Y-82608349D01*
X200856034Y-82665530D01*
X200856033Y-82665530D01*
X200856030Y-82665531D01*
X200660000Y-82684838D01*
X200463971Y-82665531D01*
X200463968Y-82665530D01*
X200463967Y-82665530D01*
X200275466Y-82608349D01*
X200275464Y-82608348D01*
X200101741Y-82515491D01*
X199949473Y-82390528D01*
X199824510Y-82238260D01*
X199731651Y-82064533D01*
X199674469Y-81876035D01*
X199660000Y-81729124D01*
X199660000Y-80830877D01*
X199674469Y-80683971D01*
X199674470Y-80683967D01*
X199731651Y-80495466D01*
X199731652Y-80495464D01*
X199731653Y-80495461D01*
X199824507Y-80321742D01*
X199949472Y-80169472D01*
X200101740Y-80044509D01*
X200275463Y-79951652D01*
X200275465Y-79951651D01*
X200463966Y-79894470D01*
X200463967Y-79894470D01*
X200463970Y-79894469D01*
X200660000Y-79875162D01*
X200856029Y-79894469D01*
X200856029Y-79894469D01*
G37*
G36*
X193236029Y-79894469D02*
X193236032Y-79894470D01*
X193236033Y-79894470D01*
X193424534Y-79951651D01*
X193424536Y-79951652D01*
X193424539Y-79951653D01*
X193598258Y-80044507D01*
X193750528Y-80169472D01*
X193875491Y-80321740D01*
X193875492Y-80321742D01*
X193968349Y-80495465D01*
X194010363Y-80633967D01*
X194025531Y-80683970D01*
X194040000Y-80830876D01*
X194040000Y-81729123D01*
X194025531Y-81876031D01*
X193968349Y-82064536D01*
X193875491Y-82238260D01*
X193750528Y-82390528D01*
X193598260Y-82515491D01*
X193424537Y-82608348D01*
X193424535Y-82608349D01*
X193236034Y-82665530D01*
X193236033Y-82665530D01*
X193236030Y-82665531D01*
X193040000Y-82684838D01*
X192843971Y-82665531D01*
X192843968Y-82665530D01*
X192843967Y-82665530D01*
X192655466Y-82608349D01*
X192655464Y-82608348D01*
X192481741Y-82515491D01*
X192329473Y-82390528D01*
X192204510Y-82238260D01*
X192111651Y-82064533D01*
X192054469Y-81876035D01*
X192040000Y-81729124D01*
X192040000Y-80830877D01*
X192054469Y-80683971D01*
X192054470Y-80683967D01*
X192111651Y-80495466D01*
X192111652Y-80495464D01*
X192111653Y-80495461D01*
X192204507Y-80321742D01*
X192329472Y-80169472D01*
X192481740Y-80044509D01*
X192655463Y-79951652D01*
X192655465Y-79951651D01*
X192843966Y-79894470D01*
X192843967Y-79894470D01*
X192843970Y-79894469D01*
X193040000Y-79875162D01*
X193236029Y-79894469D01*
X193236029Y-79894469D01*
G37*
G36*
X190696029Y-79894469D02*
X190696032Y-79894470D01*
X190696033Y-79894470D01*
X190884534Y-79951651D01*
X190884536Y-79951652D01*
X190884539Y-79951653D01*
X191058258Y-80044507D01*
X191210528Y-80169472D01*
X191335491Y-80321740D01*
X191335492Y-80321742D01*
X191428349Y-80495465D01*
X191470363Y-80633967D01*
X191485531Y-80683970D01*
X191500000Y-80830876D01*
X191500000Y-81729123D01*
X191485531Y-81876031D01*
X191428349Y-82064536D01*
X191335491Y-82238260D01*
X191210528Y-82390528D01*
X191058260Y-82515491D01*
X190884537Y-82608348D01*
X190884535Y-82608349D01*
X190696034Y-82665530D01*
X190696033Y-82665530D01*
X190696030Y-82665531D01*
X190500000Y-82684838D01*
X190303971Y-82665531D01*
X190303968Y-82665530D01*
X190303967Y-82665530D01*
X190115466Y-82608349D01*
X190115464Y-82608348D01*
X189941741Y-82515491D01*
X189789473Y-82390528D01*
X189664510Y-82238260D01*
X189571651Y-82064533D01*
X189514469Y-81876035D01*
X189500000Y-81729124D01*
X189500000Y-80830877D01*
X189514469Y-80683971D01*
X189514470Y-80683967D01*
X189571651Y-80495466D01*
X189571652Y-80495464D01*
X189571653Y-80495461D01*
X189664507Y-80321742D01*
X189789472Y-80169472D01*
X189941740Y-80044509D01*
X190115463Y-79951652D01*
X190115465Y-79951651D01*
X190303966Y-79894470D01*
X190303967Y-79894470D01*
X190303970Y-79894469D01*
X190500000Y-79875162D01*
X190696029Y-79894469D01*
X190696029Y-79894469D01*
G37*
G36*
X198316029Y-79894469D02*
X198316032Y-79894470D01*
X198316033Y-79894470D01*
X198504534Y-79951651D01*
X198504536Y-79951652D01*
X198504539Y-79951653D01*
X198678258Y-80044507D01*
X198830528Y-80169472D01*
X198955491Y-80321740D01*
X198955492Y-80321742D01*
X199048349Y-80495465D01*
X199090363Y-80633967D01*
X199105531Y-80683970D01*
X199120000Y-80830876D01*
X199120000Y-81729123D01*
X199105531Y-81876031D01*
X199048349Y-82064536D01*
X198955491Y-82238260D01*
X198830528Y-82390528D01*
X198678260Y-82515491D01*
X198504537Y-82608348D01*
X198504535Y-82608349D01*
X198316034Y-82665530D01*
X198316033Y-82665530D01*
X198316030Y-82665531D01*
X198120000Y-82684838D01*
X197923971Y-82665531D01*
X197923968Y-82665530D01*
X197923967Y-82665530D01*
X197735466Y-82608349D01*
X197735464Y-82608348D01*
X197561741Y-82515491D01*
X197409473Y-82390528D01*
X197284510Y-82238260D01*
X197191651Y-82064533D01*
X197134469Y-81876035D01*
X197120000Y-81729124D01*
X197120000Y-80830877D01*
X197134469Y-80683971D01*
X197134470Y-80683967D01*
X197191651Y-80495466D01*
X197191652Y-80495464D01*
X197191653Y-80495461D01*
X197284507Y-80321742D01*
X197409472Y-80169472D01*
X197561740Y-80044509D01*
X197735463Y-79951652D01*
X197735465Y-79951651D01*
X197923966Y-79894470D01*
X197923967Y-79894470D01*
X197923970Y-79894469D01*
X198120000Y-79875162D01*
X198316029Y-79894469D01*
X198316029Y-79894469D01*
G37*
G36*
X188960000Y-82680000D02*
X186960000Y-82680000D01*
X186960000Y-79880000D01*
X188960000Y-79880000D01*
X188960000Y-82680000D01*
X188960000Y-82680000D01*
G37*
G36*
X182206030Y-80294469D02*
X182206033Y-80294470D01*
X182206034Y-80294470D01*
X182394535Y-80351651D01*
X182394537Y-80351652D01*
X182568260Y-80444509D01*
X182720528Y-80569472D01*
X182845491Y-80721740D01*
X182903825Y-80830876D01*
X182938349Y-80895465D01*
X182940784Y-80903493D01*
X182995531Y-81083970D01*
X183014838Y-81280000D01*
X182995531Y-81476030D01*
X182938348Y-81664537D01*
X182845491Y-81838260D01*
X182720528Y-81990528D01*
X182568260Y-82115491D01*
X182568258Y-82115492D01*
X182394535Y-82208349D01*
X182206034Y-82265530D01*
X182206033Y-82265530D01*
X182206030Y-82265531D01*
X182059124Y-82280000D01*
X181160876Y-82280000D01*
X181013970Y-82265531D01*
X181013967Y-82265530D01*
X181013966Y-82265530D01*
X180825465Y-82208349D01*
X180651742Y-82115492D01*
X180651740Y-82115491D01*
X180499472Y-81990528D01*
X180374509Y-81838260D01*
X180281652Y-81664537D01*
X180224469Y-81476030D01*
X180205162Y-81280000D01*
X180224469Y-81083970D01*
X180279216Y-80903493D01*
X180281651Y-80895465D01*
X180316175Y-80830876D01*
X180374509Y-80721740D01*
X180499472Y-80569472D01*
X180651740Y-80444509D01*
X180825463Y-80351652D01*
X180825465Y-80351651D01*
X181013966Y-80294470D01*
X181013967Y-80294470D01*
X181013970Y-80294469D01*
X181160876Y-80280000D01*
X182059124Y-80280000D01*
X182206030Y-80294469D01*
X182206030Y-80294469D01*
G37*
G36*
X212015770Y-79820372D02*
X212131689Y-79843429D01*
X212313678Y-79918811D01*
X212477463Y-80028249D01*
X212616751Y-80167537D01*
X212726189Y-80331322D01*
X212801571Y-80513311D01*
X212824628Y-80629230D01*
X212825571Y-80633966D01*
X212840000Y-80706509D01*
X212840000Y-80903491D01*
X212801571Y-81096689D01*
X212726189Y-81278678D01*
X212616751Y-81442463D01*
X212477463Y-81581751D01*
X212313678Y-81691189D01*
X212131689Y-81766571D01*
X212015770Y-81789628D01*
X211938493Y-81805000D01*
X211741507Y-81805000D01*
X211664230Y-81789628D01*
X211548311Y-81766571D01*
X211366322Y-81691189D01*
X211202537Y-81581751D01*
X211063249Y-81442463D01*
X210953811Y-81278678D01*
X210878429Y-81096689D01*
X210840000Y-80903491D01*
X210840000Y-80706509D01*
X210854430Y-80633966D01*
X210855372Y-80629230D01*
X210878429Y-80513311D01*
X210953811Y-80331322D01*
X211063249Y-80167537D01*
X211202537Y-80028249D01*
X211366322Y-79918811D01*
X211548311Y-79843429D01*
X211664230Y-79820372D01*
X211741507Y-79805000D01*
X211938493Y-79805000D01*
X212015770Y-79820372D01*
X212015770Y-79820372D01*
G37*
G36*
X125096030Y-78634469D02*
X125096033Y-78634470D01*
X125096034Y-78634470D01*
X125284535Y-78691651D01*
X125284537Y-78691652D01*
X125458260Y-78784509D01*
X125610528Y-78909472D01*
X125735491Y-79061740D01*
X125735492Y-79061742D01*
X125828349Y-79235465D01*
X125854449Y-79321507D01*
X125885531Y-79423970D01*
X125904838Y-79620000D01*
X125885531Y-79816030D01*
X125885530Y-79816033D01*
X125885530Y-79816034D01*
X125831391Y-79994508D01*
X125828348Y-80004537D01*
X125735491Y-80178260D01*
X125610528Y-80330528D01*
X125458260Y-80455491D01*
X125350081Y-80513314D01*
X125284535Y-80548349D01*
X125096034Y-80605530D01*
X125096033Y-80605530D01*
X125096030Y-80605531D01*
X124949124Y-80620000D01*
X124050876Y-80620000D01*
X123903970Y-80605531D01*
X123903967Y-80605530D01*
X123903966Y-80605530D01*
X123715465Y-80548349D01*
X123649919Y-80513314D01*
X123541740Y-80455491D01*
X123389472Y-80330528D01*
X123264509Y-80178260D01*
X123171652Y-80004537D01*
X123168610Y-79994508D01*
X123114470Y-79816034D01*
X123114470Y-79816033D01*
X123114469Y-79816030D01*
X123095162Y-79620000D01*
X123114469Y-79423970D01*
X123145551Y-79321507D01*
X123171651Y-79235465D01*
X123264508Y-79061742D01*
X123264509Y-79061740D01*
X123389472Y-78909472D01*
X123541740Y-78784509D01*
X123715463Y-78691652D01*
X123715465Y-78691651D01*
X123903966Y-78634470D01*
X123903967Y-78634470D01*
X123903970Y-78634469D01*
X124050876Y-78620000D01*
X124949124Y-78620000D01*
X125096030Y-78634469D01*
X125096030Y-78634469D01*
G37*
G36*
X209175770Y-78435372D02*
X209291689Y-78458429D01*
X209473678Y-78533811D01*
X209637463Y-78643249D01*
X209776751Y-78782537D01*
X209886189Y-78946322D01*
X209961571Y-79128311D01*
X210000000Y-79321509D01*
X210000000Y-79518491D01*
X209961571Y-79711689D01*
X209886189Y-79893678D01*
X209776751Y-80057463D01*
X209637463Y-80196751D01*
X209473678Y-80306189D01*
X209291689Y-80381571D01*
X209175770Y-80404628D01*
X209098493Y-80420000D01*
X208901507Y-80420000D01*
X208824230Y-80404628D01*
X208708311Y-80381571D01*
X208526322Y-80306189D01*
X208362537Y-80196751D01*
X208223249Y-80057463D01*
X208113811Y-79893678D01*
X208038429Y-79711689D01*
X208000000Y-79518491D01*
X208000000Y-79321509D01*
X208038429Y-79128311D01*
X208113811Y-78946322D01*
X208223249Y-78782537D01*
X208362537Y-78643249D01*
X208526322Y-78533811D01*
X208708311Y-78458429D01*
X208824230Y-78435372D01*
X208901507Y-78420000D01*
X209098493Y-78420000D01*
X209175770Y-78435372D01*
X209175770Y-78435372D01*
G37*
G36*
X182206030Y-77754469D02*
X182206033Y-77754470D01*
X182206034Y-77754470D01*
X182394535Y-77811651D01*
X182394537Y-77811652D01*
X182568260Y-77904509D01*
X182720528Y-78029472D01*
X182845491Y-78181740D01*
X182845492Y-78181742D01*
X182938349Y-78355465D01*
X182995530Y-78543966D01*
X182995531Y-78543970D01*
X183014838Y-78740000D01*
X182995531Y-78936030D01*
X182995530Y-78936033D01*
X182995530Y-78936034D01*
X182957398Y-79061740D01*
X182938348Y-79124537D01*
X182845491Y-79298260D01*
X182720528Y-79450528D01*
X182568260Y-79575491D01*
X182394537Y-79668348D01*
X182394535Y-79668349D01*
X182206034Y-79725530D01*
X182206033Y-79725530D01*
X182206030Y-79725531D01*
X182059124Y-79740000D01*
X181160876Y-79740000D01*
X181013970Y-79725531D01*
X181013967Y-79725530D01*
X181013966Y-79725530D01*
X180825465Y-79668349D01*
X180825463Y-79668348D01*
X180651740Y-79575491D01*
X180499472Y-79450528D01*
X180374509Y-79298260D01*
X180281652Y-79124537D01*
X180262603Y-79061740D01*
X180224470Y-78936034D01*
X180224470Y-78936033D01*
X180224469Y-78936030D01*
X180205162Y-78740000D01*
X180224469Y-78543970D01*
X180224470Y-78543966D01*
X180281651Y-78355465D01*
X180374508Y-78181742D01*
X180374509Y-78181740D01*
X180499472Y-78029472D01*
X180651740Y-77904509D01*
X180825463Y-77811652D01*
X180825465Y-77811651D01*
X181013966Y-77754470D01*
X181013967Y-77754470D01*
X181013970Y-77754469D01*
X181160876Y-77740000D01*
X182059124Y-77740000D01*
X182206030Y-77754469D01*
X182206030Y-77754469D01*
G37*
G36*
X175856030Y-77754469D02*
X175856033Y-77754470D01*
X175856034Y-77754470D01*
X176044535Y-77811651D01*
X176044537Y-77811652D01*
X176218260Y-77904509D01*
X176370528Y-78029472D01*
X176495491Y-78181740D01*
X176495492Y-78181742D01*
X176588349Y-78355465D01*
X176645530Y-78543966D01*
X176645531Y-78543970D01*
X176664838Y-78740000D01*
X176645531Y-78936030D01*
X176645530Y-78936033D01*
X176645530Y-78936034D01*
X176607398Y-79061740D01*
X176588348Y-79124537D01*
X176495491Y-79298260D01*
X176370528Y-79450528D01*
X176218260Y-79575491D01*
X176044537Y-79668348D01*
X176044535Y-79668349D01*
X175856034Y-79725530D01*
X175856033Y-79725530D01*
X175856030Y-79725531D01*
X175709124Y-79740000D01*
X174810876Y-79740000D01*
X174663970Y-79725531D01*
X174663967Y-79725530D01*
X174663966Y-79725530D01*
X174475465Y-79668349D01*
X174475463Y-79668348D01*
X174301740Y-79575491D01*
X174149472Y-79450528D01*
X174024509Y-79298260D01*
X173931652Y-79124537D01*
X173912603Y-79061740D01*
X173874470Y-78936034D01*
X173874470Y-78936033D01*
X173874469Y-78936030D01*
X173855162Y-78740000D01*
X173874469Y-78543970D01*
X173874470Y-78543966D01*
X173931651Y-78355465D01*
X174024508Y-78181742D01*
X174024509Y-78181740D01*
X174149472Y-78029472D01*
X174301740Y-77904509D01*
X174475463Y-77811652D01*
X174475465Y-77811651D01*
X174663966Y-77754470D01*
X174663967Y-77754470D01*
X174663970Y-77754469D01*
X174810876Y-77740000D01*
X175709124Y-77740000D01*
X175856030Y-77754469D01*
X175856030Y-77754469D01*
G37*
G36*
X125096030Y-76094469D02*
X125096033Y-76094470D01*
X125096034Y-76094470D01*
X125284535Y-76151651D01*
X125284537Y-76151652D01*
X125458260Y-76244509D01*
X125610528Y-76369472D01*
X125735491Y-76521740D01*
X125735492Y-76521742D01*
X125828349Y-76695465D01*
X125872799Y-76841997D01*
X125885531Y-76883970D01*
X125904838Y-77080000D01*
X125885531Y-77276030D01*
X125885530Y-77276033D01*
X125885530Y-77276034D01*
X125863093Y-77350000D01*
X125828348Y-77464537D01*
X125735491Y-77638260D01*
X125610528Y-77790528D01*
X125458260Y-77915491D01*
X125458258Y-77915492D01*
X125284535Y-78008349D01*
X125096034Y-78065530D01*
X125096033Y-78065530D01*
X125096030Y-78065531D01*
X124949124Y-78080000D01*
X124050876Y-78080000D01*
X123903970Y-78065531D01*
X123903967Y-78065530D01*
X123903966Y-78065530D01*
X123715465Y-78008349D01*
X123541742Y-77915492D01*
X123541740Y-77915491D01*
X123389472Y-77790528D01*
X123264509Y-77638260D01*
X123171652Y-77464537D01*
X123136908Y-77350000D01*
X123114470Y-77276034D01*
X123114470Y-77276033D01*
X123114469Y-77276030D01*
X123095162Y-77080000D01*
X123114469Y-76883970D01*
X123127201Y-76841997D01*
X123171651Y-76695465D01*
X123264508Y-76521742D01*
X123264509Y-76521740D01*
X123389472Y-76369472D01*
X123541740Y-76244509D01*
X123715463Y-76151652D01*
X123715465Y-76151651D01*
X123903966Y-76094470D01*
X123903967Y-76094470D01*
X123903970Y-76094469D01*
X124050876Y-76080000D01*
X124949124Y-76080000D01*
X125096030Y-76094469D01*
X125096030Y-76094469D01*
G37*
G36*
X168070000Y-74810000D02*
X167084169Y-74810000D01*
X167059783Y-74812402D01*
X167036334Y-74819515D01*
X167014723Y-74831066D01*
X166995781Y-74846612D01*
X166980235Y-74865554D01*
X166968684Y-74887165D01*
X166961571Y-74910614D01*
X166959169Y-74935000D01*
X166961571Y-74959386D01*
X166968684Y-74982835D01*
X166980235Y-75004446D01*
X166995781Y-75023388D01*
X167014723Y-75038934D01*
X167036334Y-75050485D01*
X167059783Y-75057598D01*
X167071917Y-75059398D01*
X167145436Y-75066639D01*
X167145439Y-75066640D01*
X167362215Y-75132398D01*
X167561997Y-75239184D01*
X167737107Y-75382893D01*
X167880816Y-75558003D01*
X167973811Y-75731984D01*
X167987601Y-75757783D01*
X168053361Y-75974564D01*
X168075564Y-76200000D01*
X168053361Y-76425436D01*
X168053360Y-76425439D01*
X167987602Y-76642215D01*
X167880816Y-76841997D01*
X167737107Y-77017107D01*
X167561997Y-77160816D01*
X167362215Y-77267602D01*
X167185791Y-77321119D01*
X167145436Y-77333361D01*
X166976496Y-77350000D01*
X165763504Y-77350000D01*
X165594564Y-77333361D01*
X165554209Y-77321119D01*
X165377785Y-77267602D01*
X165178003Y-77160816D01*
X165002893Y-77017107D01*
X164859184Y-76841997D01*
X164752398Y-76642215D01*
X164686640Y-76425439D01*
X164686639Y-76425436D01*
X164664436Y-76200000D01*
X164686639Y-75974564D01*
X164752399Y-75757783D01*
X164766189Y-75731984D01*
X164859184Y-75558003D01*
X165002893Y-75382893D01*
X165178003Y-75239184D01*
X165377785Y-75132398D01*
X165594561Y-75066640D01*
X165594564Y-75066639D01*
X165668083Y-75059398D01*
X165692116Y-75054618D01*
X165714755Y-75045240D01*
X165735130Y-75031626D01*
X165752457Y-75014299D01*
X165766071Y-74993925D01*
X165775449Y-74971286D01*
X165780229Y-74947252D01*
X165780229Y-74922748D01*
X165775449Y-74898715D01*
X165766071Y-74876076D01*
X165752457Y-74855701D01*
X165735130Y-74838374D01*
X165714756Y-74824760D01*
X165692117Y-74815382D01*
X165668083Y-74810602D01*
X165655831Y-74810000D01*
X164670000Y-74810000D01*
X164670000Y-72510000D01*
X168070000Y-72510000D01*
X168070000Y-74810000D01*
X168070000Y-74810000D01*
G37*
G36*
X201256030Y-75214469D02*
X201256033Y-75214470D01*
X201256034Y-75214470D01*
X201444535Y-75271651D01*
X201444537Y-75271652D01*
X201618260Y-75364509D01*
X201770528Y-75489472D01*
X201895491Y-75641740D01*
X201988348Y-75815463D01*
X202045531Y-76003970D01*
X202064838Y-76200000D01*
X202045531Y-76396030D01*
X202045530Y-76396033D01*
X202045530Y-76396034D01*
X202007398Y-76521740D01*
X201988348Y-76584537D01*
X201895491Y-76758260D01*
X201770528Y-76910528D01*
X201618260Y-77035491D01*
X201444537Y-77128348D01*
X201444535Y-77128349D01*
X201256034Y-77185530D01*
X201256033Y-77185530D01*
X201256030Y-77185531D01*
X201109124Y-77200000D01*
X200210876Y-77200000D01*
X200063970Y-77185531D01*
X200063967Y-77185530D01*
X200063966Y-77185530D01*
X199875465Y-77128349D01*
X199875463Y-77128348D01*
X199701740Y-77035491D01*
X199549472Y-76910528D01*
X199424509Y-76758260D01*
X199331652Y-76584537D01*
X199312603Y-76521740D01*
X199274470Y-76396034D01*
X199274470Y-76396033D01*
X199274469Y-76396030D01*
X199255162Y-76200000D01*
X199274469Y-76003970D01*
X199331652Y-75815463D01*
X199424509Y-75641740D01*
X199549472Y-75489472D01*
X199701740Y-75364509D01*
X199875463Y-75271652D01*
X199875465Y-75271651D01*
X200063966Y-75214470D01*
X200063967Y-75214470D01*
X200063970Y-75214469D01*
X200210876Y-75200000D01*
X201109124Y-75200000D01*
X201256030Y-75214469D01*
X201256030Y-75214469D01*
G37*
G36*
X183010000Y-77200000D02*
X180210000Y-77200000D01*
X180210000Y-75200000D01*
X183010000Y-75200000D01*
X183010000Y-77200000D01*
X183010000Y-77200000D01*
G37*
G36*
X176660000Y-77200000D02*
X173860000Y-77200000D01*
X173860000Y-75200000D01*
X176660000Y-75200000D01*
X176660000Y-77200000D01*
X176660000Y-77200000D01*
G37*
G36*
X125096030Y-73554469D02*
X125096033Y-73554470D01*
X125096034Y-73554470D01*
X125284535Y-73611651D01*
X125284537Y-73611652D01*
X125458260Y-73704509D01*
X125610528Y-73829472D01*
X125735491Y-73981740D01*
X125828348Y-74155463D01*
X125885531Y-74343970D01*
X125904838Y-74540000D01*
X125885531Y-74736030D01*
X125885530Y-74736033D01*
X125885530Y-74736034D01*
X125832572Y-74910614D01*
X125828348Y-74924537D01*
X125735491Y-75098260D01*
X125610528Y-75250528D01*
X125458260Y-75375491D01*
X125458258Y-75375492D01*
X125284535Y-75468349D01*
X125096034Y-75525530D01*
X125096033Y-75525530D01*
X125096030Y-75525531D01*
X124949124Y-75540000D01*
X124050876Y-75540000D01*
X123903970Y-75525531D01*
X123903967Y-75525530D01*
X123903966Y-75525530D01*
X123715465Y-75468349D01*
X123541742Y-75375492D01*
X123541740Y-75375491D01*
X123389472Y-75250528D01*
X123264509Y-75098260D01*
X123171652Y-74924537D01*
X123167429Y-74910614D01*
X123114470Y-74736034D01*
X123114470Y-74736033D01*
X123114469Y-74736030D01*
X123095162Y-74540000D01*
X123114469Y-74343970D01*
X123171652Y-74155463D01*
X123264509Y-73981740D01*
X123389472Y-73829472D01*
X123541740Y-73704509D01*
X123715463Y-73611652D01*
X123715465Y-73611651D01*
X123903966Y-73554470D01*
X123903967Y-73554470D01*
X123903970Y-73554469D01*
X124050876Y-73540000D01*
X124949124Y-73540000D01*
X125096030Y-73554469D01*
X125096030Y-73554469D01*
G37*
G36*
X211061716Y-70344544D02*
X211462090Y-70510384D01*
X211822421Y-70751150D01*
X212128850Y-71057579D01*
X212369616Y-71417910D01*
X212535456Y-71818284D01*
X212620000Y-72243317D01*
X212620000Y-72676683D01*
X212535456Y-73101716D01*
X212369616Y-73502090D01*
X212128850Y-73862421D01*
X211822421Y-74168850D01*
X211462090Y-74409616D01*
X211061716Y-74575456D01*
X210636683Y-74660000D01*
X210203317Y-74660000D01*
X209778284Y-74575456D01*
X209377910Y-74409616D01*
X209017579Y-74168850D01*
X208711150Y-73862421D01*
X208470384Y-73502090D01*
X208304544Y-73101716D01*
X208220000Y-72676683D01*
X208220000Y-72243317D01*
X208304544Y-71818284D01*
X208470384Y-71417910D01*
X208711150Y-71057579D01*
X209017579Y-70751150D01*
X209377910Y-70510384D01*
X209778284Y-70344544D01*
X210203317Y-70260000D01*
X210636683Y-70260000D01*
X211061716Y-70344544D01*
X211061716Y-70344544D01*
G37*
G36*
X202060000Y-74660000D02*
X199260000Y-74660000D01*
X199260000Y-72660000D01*
X202060000Y-72660000D01*
X202060000Y-74660000D01*
X202060000Y-74660000D01*
G37*
G36*
X125900000Y-73000000D02*
X123100000Y-73000000D01*
X123100000Y-71000000D01*
X125900000Y-71000000D01*
X125900000Y-73000000D01*
X125900000Y-73000000D01*
G37*
G36*
X166771072Y-64717840D02*
X167021304Y-64821489D01*
X167246515Y-64971971D01*
X167438029Y-65163485D01*
X167588511Y-65388696D01*
X167692160Y-65638928D01*
X167745000Y-65904573D01*
X167745000Y-66175427D01*
X167692160Y-66441072D01*
X167588511Y-66691304D01*
X167438029Y-66916515D01*
X167246515Y-67108029D01*
X167021304Y-67258511D01*
X166771072Y-67362160D01*
X166505427Y-67415000D01*
X166234573Y-67415000D01*
X165968928Y-67362160D01*
X165718696Y-67258511D01*
X165493485Y-67108029D01*
X165301971Y-66916515D01*
X165151489Y-66691304D01*
X165047840Y-66441072D01*
X164995000Y-66175427D01*
X164995000Y-65904573D01*
X165047840Y-65638928D01*
X165151489Y-65388696D01*
X165301971Y-65163485D01*
X165493485Y-64971971D01*
X165718696Y-64821489D01*
X165968928Y-64717840D01*
X166234573Y-64665000D01*
X166505427Y-64665000D01*
X166771072Y-64717840D01*
X166771072Y-64717840D01*
G37*
G36*
X181771072Y-64717840D02*
X182021304Y-64821489D01*
X182246515Y-64971971D01*
X182438029Y-65163485D01*
X182588511Y-65388696D01*
X182692160Y-65638928D01*
X182745000Y-65904573D01*
X182745000Y-66175427D01*
X182692160Y-66441072D01*
X182588511Y-66691304D01*
X182438029Y-66916515D01*
X182246515Y-67108029D01*
X182021304Y-67258511D01*
X181771072Y-67362160D01*
X181505427Y-67415000D01*
X181234573Y-67415000D01*
X180968928Y-67362160D01*
X180718696Y-67258511D01*
X180493485Y-67108029D01*
X180301971Y-66916515D01*
X180151489Y-66691304D01*
X180047840Y-66441072D01*
X179995000Y-66175427D01*
X179995000Y-65904573D01*
X180047840Y-65638928D01*
X180151489Y-65388696D01*
X180301971Y-65163485D01*
X180493485Y-64971971D01*
X180718696Y-64821489D01*
X180968928Y-64717840D01*
X181234573Y-64665000D01*
X181505427Y-64665000D01*
X181771072Y-64717840D01*
X181771072Y-64717840D01*
G37*
G36*
X186771072Y-64717840D02*
X187021304Y-64821489D01*
X187246515Y-64971971D01*
X187438029Y-65163485D01*
X187588511Y-65388696D01*
X187692160Y-65638928D01*
X187745000Y-65904573D01*
X187745000Y-66175427D01*
X187692160Y-66441072D01*
X187588511Y-66691304D01*
X187438029Y-66916515D01*
X187246515Y-67108029D01*
X187021304Y-67258511D01*
X186771072Y-67362160D01*
X186505427Y-67415000D01*
X186234573Y-67415000D01*
X185968928Y-67362160D01*
X185718696Y-67258511D01*
X185493485Y-67108029D01*
X185301971Y-66916515D01*
X185151489Y-66691304D01*
X185047840Y-66441072D01*
X184995000Y-66175427D01*
X184995000Y-65904573D01*
X185047840Y-65638928D01*
X185151489Y-65388696D01*
X185301971Y-65163485D01*
X185493485Y-64971971D01*
X185718696Y-64821489D01*
X185968928Y-64717840D01*
X186234573Y-64665000D01*
X186505427Y-64665000D01*
X186771072Y-64717840D01*
X186771072Y-64717840D01*
G37*
G36*
X171771072Y-64717840D02*
X172021304Y-64821489D01*
X172246515Y-64971971D01*
X172438029Y-65163485D01*
X172588511Y-65388696D01*
X172692160Y-65638928D01*
X172745000Y-65904573D01*
X172745000Y-66175427D01*
X172692160Y-66441072D01*
X172588511Y-66691304D01*
X172438029Y-66916515D01*
X172246515Y-67108029D01*
X172021304Y-67258511D01*
X171771072Y-67362160D01*
X171505427Y-67415000D01*
X171234573Y-67415000D01*
X170968928Y-67362160D01*
X170718696Y-67258511D01*
X170493485Y-67108029D01*
X170301971Y-66916515D01*
X170151489Y-66691304D01*
X170047840Y-66441072D01*
X169995000Y-66175427D01*
X169995000Y-65904573D01*
X170047840Y-65638928D01*
X170151489Y-65388696D01*
X170301971Y-65163485D01*
X170493485Y-64971971D01*
X170718696Y-64821489D01*
X170968928Y-64717840D01*
X171234573Y-64665000D01*
X171505427Y-64665000D01*
X171771072Y-64717840D01*
X171771072Y-64717840D01*
G37*
G36*
X195473127Y-63526901D02*
X195608365Y-63553801D01*
X195863149Y-63659336D01*
X196089397Y-63810511D01*
X196092451Y-63812551D01*
X196287449Y-64007549D01*
X196287451Y-64007552D01*
X196440664Y-64236851D01*
X196546199Y-64491635D01*
X196600000Y-64762112D01*
X196600000Y-65037888D01*
X196546199Y-65308365D01*
X196440664Y-65563149D01*
X196390030Y-65638928D01*
X196287449Y-65792451D01*
X196092451Y-65987449D01*
X196092448Y-65987451D01*
X195863149Y-66140664D01*
X195608365Y-66246199D01*
X195473126Y-66273100D01*
X195337889Y-66300000D01*
X195062111Y-66300000D01*
X194926874Y-66273100D01*
X194791635Y-66246199D01*
X194536851Y-66140664D01*
X194307552Y-65987451D01*
X194307549Y-65987449D01*
X194112551Y-65792451D01*
X194009970Y-65638928D01*
X193959336Y-65563149D01*
X193853801Y-65308365D01*
X193800000Y-65037888D01*
X193800000Y-64762112D01*
X193853801Y-64491635D01*
X193959336Y-64236851D01*
X194112549Y-64007552D01*
X194112551Y-64007549D01*
X194307549Y-63812551D01*
X194310603Y-63810511D01*
X194536851Y-63659336D01*
X194791635Y-63553801D01*
X194926873Y-63526901D01*
X195062111Y-63500000D01*
X195337889Y-63500000D01*
X195473127Y-63526901D01*
X195473127Y-63526901D01*
G37*
G36*
X199273127Y-63526901D02*
X199408365Y-63553801D01*
X199663149Y-63659336D01*
X199889397Y-63810511D01*
X199892451Y-63812551D01*
X200087449Y-64007549D01*
X200087451Y-64007552D01*
X200240664Y-64236851D01*
X200346199Y-64491635D01*
X200400000Y-64762112D01*
X200400000Y-65037888D01*
X200346199Y-65308365D01*
X200240664Y-65563149D01*
X200190030Y-65638928D01*
X200087449Y-65792451D01*
X199892451Y-65987449D01*
X199892448Y-65987451D01*
X199663149Y-66140664D01*
X199408365Y-66246199D01*
X199273126Y-66273100D01*
X199137889Y-66300000D01*
X198862111Y-66300000D01*
X198726874Y-66273100D01*
X198591635Y-66246199D01*
X198336851Y-66140664D01*
X198107552Y-65987451D01*
X198107549Y-65987449D01*
X197912551Y-65792451D01*
X197809970Y-65638928D01*
X197759336Y-65563149D01*
X197653801Y-65308365D01*
X197600000Y-65037888D01*
X197600000Y-64762112D01*
X197653801Y-64491635D01*
X197759336Y-64236851D01*
X197912549Y-64007552D01*
X197912551Y-64007549D01*
X198107549Y-63812551D01*
X198110603Y-63810511D01*
X198336851Y-63659336D01*
X198591635Y-63553801D01*
X198726873Y-63526901D01*
X198862111Y-63500000D01*
X199137889Y-63500000D01*
X199273127Y-63526901D01*
X199273127Y-63526901D01*
G37*
G36*
X203073127Y-63526901D02*
X203208365Y-63553801D01*
X203463149Y-63659336D01*
X203689397Y-63810511D01*
X203692451Y-63812551D01*
X203887449Y-64007549D01*
X203887451Y-64007552D01*
X204040664Y-64236851D01*
X204146199Y-64491635D01*
X204200000Y-64762112D01*
X204200000Y-65037888D01*
X204146199Y-65308365D01*
X204040664Y-65563149D01*
X203990030Y-65638928D01*
X203887449Y-65792451D01*
X203692451Y-65987449D01*
X203692448Y-65987451D01*
X203463149Y-66140664D01*
X203208365Y-66246199D01*
X203073126Y-66273100D01*
X202937889Y-66300000D01*
X202662111Y-66300000D01*
X202526874Y-66273100D01*
X202391635Y-66246199D01*
X202136851Y-66140664D01*
X201907552Y-65987451D01*
X201907549Y-65987449D01*
X201712551Y-65792451D01*
X201609970Y-65638928D01*
X201559336Y-65563149D01*
X201453801Y-65308365D01*
X201400000Y-65037888D01*
X201400000Y-64762112D01*
X201453801Y-64491635D01*
X201559336Y-64236851D01*
X201712549Y-64007552D01*
X201712551Y-64007549D01*
X201907549Y-63812551D01*
X201910603Y-63810511D01*
X202136851Y-63659336D01*
X202391635Y-63553801D01*
X202526873Y-63526901D01*
X202662111Y-63500000D01*
X202937889Y-63500000D01*
X203073127Y-63526901D01*
X203073127Y-63526901D01*
G37*
G36*
X215773127Y-63526901D02*
X215908365Y-63553801D01*
X216163149Y-63659336D01*
X216389397Y-63810511D01*
X216392451Y-63812551D01*
X216587449Y-64007549D01*
X216587451Y-64007552D01*
X216740664Y-64236851D01*
X216846199Y-64491635D01*
X216900000Y-64762112D01*
X216900000Y-65037888D01*
X216846199Y-65308365D01*
X216740664Y-65563149D01*
X216690030Y-65638928D01*
X216587449Y-65792451D01*
X216392451Y-65987449D01*
X216392448Y-65987451D01*
X216163149Y-66140664D01*
X215908365Y-66246199D01*
X215773126Y-66273100D01*
X215637889Y-66300000D01*
X215362111Y-66300000D01*
X215226874Y-66273100D01*
X215091635Y-66246199D01*
X214836851Y-66140664D01*
X214607552Y-65987451D01*
X214607549Y-65987449D01*
X214412551Y-65792451D01*
X214309970Y-65638928D01*
X214259336Y-65563149D01*
X214153801Y-65308365D01*
X214100000Y-65037888D01*
X214100000Y-64762112D01*
X214153801Y-64491635D01*
X214259336Y-64236851D01*
X214412549Y-64007552D01*
X214412551Y-64007549D01*
X214607549Y-63812551D01*
X214610603Y-63810511D01*
X214836851Y-63659336D01*
X215091635Y-63553801D01*
X215226873Y-63526901D01*
X215362111Y-63500000D01*
X215637889Y-63500000D01*
X215773127Y-63526901D01*
X215773127Y-63526901D01*
G37*
G36*
X199273126Y-58726900D02*
X199408365Y-58753801D01*
X199663149Y-58859336D01*
X199889397Y-59010511D01*
X199892451Y-59012551D01*
X200087449Y-59207549D01*
X200240665Y-59436853D01*
X200346199Y-59691636D01*
X200400000Y-59962111D01*
X200400000Y-60237889D01*
X200346199Y-60508364D01*
X200240665Y-60763147D01*
X200087449Y-60992451D01*
X199892451Y-61187449D01*
X199892448Y-61187451D01*
X199663149Y-61340664D01*
X199408365Y-61446199D01*
X199273127Y-61473099D01*
X199137889Y-61500000D01*
X198862111Y-61500000D01*
X198726873Y-61473099D01*
X198591635Y-61446199D01*
X198336851Y-61340664D01*
X198107552Y-61187451D01*
X198107549Y-61187449D01*
X197912551Y-60992451D01*
X197759335Y-60763147D01*
X197653801Y-60508364D01*
X197600000Y-60237889D01*
X197600000Y-59962111D01*
X197653801Y-59691636D01*
X197759335Y-59436853D01*
X197912551Y-59207549D01*
X198107549Y-59012551D01*
X198110603Y-59010511D01*
X198336851Y-58859336D01*
X198591635Y-58753801D01*
X198726874Y-58726900D01*
X198862111Y-58700000D01*
X199137889Y-58700000D01*
X199273126Y-58726900D01*
X199273126Y-58726900D01*
G37*
G36*
X195473126Y-58726900D02*
X195608365Y-58753801D01*
X195863149Y-58859336D01*
X196089397Y-59010511D01*
X196092451Y-59012551D01*
X196287449Y-59207549D01*
X196440665Y-59436853D01*
X196546199Y-59691636D01*
X196600000Y-59962111D01*
X196600000Y-60237889D01*
X196546199Y-60508364D01*
X196440665Y-60763147D01*
X196287449Y-60992451D01*
X196092451Y-61187449D01*
X196092448Y-61187451D01*
X195863149Y-61340664D01*
X195608365Y-61446199D01*
X195473127Y-61473099D01*
X195337889Y-61500000D01*
X195062111Y-61500000D01*
X194926873Y-61473099D01*
X194791635Y-61446199D01*
X194536851Y-61340664D01*
X194307552Y-61187451D01*
X194307549Y-61187449D01*
X194112551Y-60992451D01*
X193959335Y-60763147D01*
X193853801Y-60508364D01*
X193800000Y-60237889D01*
X193800000Y-59962111D01*
X193853801Y-59691636D01*
X193959335Y-59436853D01*
X194112551Y-59207549D01*
X194307549Y-59012551D01*
X194310603Y-59010511D01*
X194536851Y-58859336D01*
X194791635Y-58753801D01*
X194926874Y-58726900D01*
X195062111Y-58700000D01*
X195337889Y-58700000D01*
X195473126Y-58726900D01*
X195473126Y-58726900D01*
G37*
G36*
X203073126Y-58726900D02*
X203208365Y-58753801D01*
X203463149Y-58859336D01*
X203689397Y-59010511D01*
X203692451Y-59012551D01*
X203887449Y-59207549D01*
X204040665Y-59436853D01*
X204146199Y-59691636D01*
X204200000Y-59962111D01*
X204200000Y-60237889D01*
X204146199Y-60508364D01*
X204040665Y-60763147D01*
X203887449Y-60992451D01*
X203692451Y-61187449D01*
X203692448Y-61187451D01*
X203463149Y-61340664D01*
X203208365Y-61446199D01*
X203073127Y-61473099D01*
X202937889Y-61500000D01*
X202662111Y-61500000D01*
X202526873Y-61473099D01*
X202391635Y-61446199D01*
X202136851Y-61340664D01*
X201907552Y-61187451D01*
X201907549Y-61187449D01*
X201712551Y-60992451D01*
X201559335Y-60763147D01*
X201453801Y-60508364D01*
X201400000Y-60237889D01*
X201400000Y-59962111D01*
X201453801Y-59691636D01*
X201559335Y-59436853D01*
X201712551Y-59207549D01*
X201907549Y-59012551D01*
X201910603Y-59010511D01*
X202136851Y-58859336D01*
X202391635Y-58753801D01*
X202526874Y-58726900D01*
X202662111Y-58700000D01*
X202937889Y-58700000D01*
X203073126Y-58726900D01*
X203073126Y-58726900D01*
G37*
G36*
X215773126Y-58726900D02*
X215908365Y-58753801D01*
X216163149Y-58859336D01*
X216389397Y-59010511D01*
X216392451Y-59012551D01*
X216587449Y-59207549D01*
X216740665Y-59436853D01*
X216846199Y-59691636D01*
X216900000Y-59962111D01*
X216900000Y-60237889D01*
X216846199Y-60508364D01*
X216740665Y-60763147D01*
X216587449Y-60992451D01*
X216392451Y-61187449D01*
X216392448Y-61187451D01*
X216163149Y-61340664D01*
X215908365Y-61446199D01*
X215773127Y-61473099D01*
X215637889Y-61500000D01*
X215362111Y-61500000D01*
X215226873Y-61473099D01*
X215091635Y-61446199D01*
X214836851Y-61340664D01*
X214607552Y-61187451D01*
X214607549Y-61187449D01*
X214412551Y-60992451D01*
X214259335Y-60763147D01*
X214153801Y-60508364D01*
X214100000Y-60237889D01*
X214100000Y-59962111D01*
X214153801Y-59691636D01*
X214259335Y-59436853D01*
X214412551Y-59207549D01*
X214607549Y-59012551D01*
X214610603Y-59010511D01*
X214836851Y-58859336D01*
X215091635Y-58753801D01*
X215226874Y-58726900D01*
X215362111Y-58700000D01*
X215637889Y-58700000D01*
X215773126Y-58726900D01*
X215773126Y-58726900D01*
G37*
G36*
X181771072Y-54557840D02*
X182021304Y-54661489D01*
X182246515Y-54811971D01*
X182438029Y-55003485D01*
X182588511Y-55228696D01*
X182692160Y-55478928D01*
X182745000Y-55744573D01*
X182745000Y-56015427D01*
X182692160Y-56281072D01*
X182588511Y-56531304D01*
X182438029Y-56756515D01*
X182246515Y-56948029D01*
X182021304Y-57098511D01*
X181771072Y-57202160D01*
X181505427Y-57255000D01*
X181234573Y-57255000D01*
X180968928Y-57202160D01*
X180718696Y-57098511D01*
X180493485Y-56948029D01*
X180301971Y-56756515D01*
X180151489Y-56531304D01*
X180047840Y-56281072D01*
X179995000Y-56015427D01*
X179995000Y-55744573D01*
X180047840Y-55478928D01*
X180151489Y-55228696D01*
X180301971Y-55003485D01*
X180493485Y-54811971D01*
X180718696Y-54661489D01*
X180968928Y-54557840D01*
X181234573Y-54505000D01*
X181505427Y-54505000D01*
X181771072Y-54557840D01*
X181771072Y-54557840D01*
G37*
G36*
X166771072Y-54557840D02*
X167021304Y-54661489D01*
X167246515Y-54811971D01*
X167438029Y-55003485D01*
X167588511Y-55228696D01*
X167692160Y-55478928D01*
X167745000Y-55744573D01*
X167745000Y-56015427D01*
X167692160Y-56281072D01*
X167588511Y-56531304D01*
X167438029Y-56756515D01*
X167246515Y-56948029D01*
X167021304Y-57098511D01*
X166771072Y-57202160D01*
X166505427Y-57255000D01*
X166234573Y-57255000D01*
X165968928Y-57202160D01*
X165718696Y-57098511D01*
X165493485Y-56948029D01*
X165301971Y-56756515D01*
X165151489Y-56531304D01*
X165047840Y-56281072D01*
X164995000Y-56015427D01*
X164995000Y-55744573D01*
X165047840Y-55478928D01*
X165151489Y-55228696D01*
X165301971Y-55003485D01*
X165493485Y-54811971D01*
X165718696Y-54661489D01*
X165968928Y-54557840D01*
X166234573Y-54505000D01*
X166505427Y-54505000D01*
X166771072Y-54557840D01*
X166771072Y-54557840D01*
G37*
G36*
X171771072Y-54557840D02*
X172021304Y-54661489D01*
X172246515Y-54811971D01*
X172438029Y-55003485D01*
X172588511Y-55228696D01*
X172692160Y-55478928D01*
X172745000Y-55744573D01*
X172745000Y-56015427D01*
X172692160Y-56281072D01*
X172588511Y-56531304D01*
X172438029Y-56756515D01*
X172246515Y-56948029D01*
X172021304Y-57098511D01*
X171771072Y-57202160D01*
X171505427Y-57255000D01*
X171234573Y-57255000D01*
X170968928Y-57202160D01*
X170718696Y-57098511D01*
X170493485Y-56948029D01*
X170301971Y-56756515D01*
X170151489Y-56531304D01*
X170047840Y-56281072D01*
X169995000Y-56015427D01*
X169995000Y-55744573D01*
X170047840Y-55478928D01*
X170151489Y-55228696D01*
X170301971Y-55003485D01*
X170493485Y-54811971D01*
X170718696Y-54661489D01*
X170968928Y-54557840D01*
X171234573Y-54505000D01*
X171505427Y-54505000D01*
X171771072Y-54557840D01*
X171771072Y-54557840D01*
G37*
G36*
X186771072Y-54557840D02*
X187021304Y-54661489D01*
X187246515Y-54811971D01*
X187438029Y-55003485D01*
X187588511Y-55228696D01*
X187692160Y-55478928D01*
X187745000Y-55744573D01*
X187745000Y-56015427D01*
X187692160Y-56281072D01*
X187588511Y-56531304D01*
X187438029Y-56756515D01*
X187246515Y-56948029D01*
X187021304Y-57098511D01*
X186771072Y-57202160D01*
X186505427Y-57255000D01*
X186234573Y-57255000D01*
X185968928Y-57202160D01*
X185718696Y-57098511D01*
X185493485Y-56948029D01*
X185301971Y-56756515D01*
X185151489Y-56531304D01*
X185047840Y-56281072D01*
X184995000Y-56015427D01*
X184995000Y-55744573D01*
X185047840Y-55478928D01*
X185151489Y-55228696D01*
X185301971Y-55003485D01*
X185493485Y-54811971D01*
X185718696Y-54661489D01*
X185968928Y-54557840D01*
X186234573Y-54505000D01*
X186505427Y-54505000D01*
X186771072Y-54557840D01*
X186771072Y-54557840D01*
G37*
G36*
X208270326Y-50924980D02*
X208405565Y-50951881D01*
X208585723Y-51026505D01*
X208655712Y-51055495D01*
X208660349Y-51057416D01*
X208784631Y-51140459D01*
X208889651Y-51210631D01*
X209084649Y-51405629D01*
X209084651Y-51405632D01*
X209237864Y-51634931D01*
X209342604Y-51887795D01*
X209343399Y-51889716D01*
X209397200Y-52160191D01*
X209397200Y-52435969D01*
X209343399Y-52706444D01*
X209237865Y-52961227D01*
X209084649Y-53190531D01*
X208889651Y-53385529D01*
X208889648Y-53385531D01*
X208660349Y-53538744D01*
X208405565Y-53644279D01*
X208270327Y-53671179D01*
X208135089Y-53698080D01*
X207859311Y-53698080D01*
X207724073Y-53671179D01*
X207588835Y-53644279D01*
X207334051Y-53538744D01*
X207104752Y-53385531D01*
X207104749Y-53385529D01*
X206909751Y-53190531D01*
X206756535Y-52961227D01*
X206651001Y-52706444D01*
X206597200Y-52435969D01*
X206597200Y-52160191D01*
X206651001Y-51889716D01*
X206651797Y-51887795D01*
X206756536Y-51634931D01*
X206909749Y-51405632D01*
X206909751Y-51405629D01*
X207104749Y-51210631D01*
X207209769Y-51140459D01*
X207334051Y-51057416D01*
X207338689Y-51055495D01*
X207408677Y-51026505D01*
X207588835Y-50951881D01*
X207724074Y-50924980D01*
X207859311Y-50898080D01*
X208135089Y-50898080D01*
X208270326Y-50924980D01*
X208270326Y-50924980D01*
G37*
G36*
X203147541Y-50898080D02*
X203408365Y-50949961D01*
X203588523Y-51024585D01*
X203625751Y-51040005D01*
X203663149Y-51055496D01*
X203870824Y-51194260D01*
X203892451Y-51208711D01*
X204087449Y-51403709D01*
X204087451Y-51403712D01*
X204240664Y-51633011D01*
X204346199Y-51887795D01*
X204400000Y-52158272D01*
X204400000Y-52434048D01*
X204346199Y-52704525D01*
X204271575Y-52884683D01*
X204240665Y-52959307D01*
X204087449Y-53188611D01*
X203892451Y-53383609D01*
X203892448Y-53383611D01*
X203663149Y-53536824D01*
X203663148Y-53536825D01*
X203663147Y-53536825D01*
X203588523Y-53567735D01*
X203408365Y-53642359D01*
X203398712Y-53644279D01*
X203137889Y-53696160D01*
X202862111Y-53696160D01*
X202601288Y-53644279D01*
X202591635Y-53642359D01*
X202411477Y-53567735D01*
X202336853Y-53536825D01*
X202336852Y-53536825D01*
X202336851Y-53536824D01*
X202107552Y-53383611D01*
X202107549Y-53383609D01*
X201912551Y-53188611D01*
X201759335Y-52959307D01*
X201728425Y-52884683D01*
X201653801Y-52704525D01*
X201600000Y-52434048D01*
X201600000Y-52158272D01*
X201653801Y-51887795D01*
X201759336Y-51633011D01*
X201912549Y-51403712D01*
X201912551Y-51403709D01*
X202107549Y-51208711D01*
X202129176Y-51194260D01*
X202336851Y-51055496D01*
X202374250Y-51040005D01*
X202411477Y-51024585D01*
X202591635Y-50949961D01*
X202852459Y-50898080D01*
X202862111Y-50896160D01*
X203137889Y-50896160D01*
X203147541Y-50898080D01*
X203147541Y-50898080D01*
G37*
G36*
X218268027Y-48426241D02*
X218403265Y-48453141D01*
X218583423Y-48527765D01*
X218645783Y-48553595D01*
X218658049Y-48558676D01*
X218879745Y-48706809D01*
X218887351Y-48711891D01*
X219082349Y-48906889D01*
X219082351Y-48906892D01*
X219235564Y-49136191D01*
X219338995Y-49385895D01*
X219341099Y-49390976D01*
X219393890Y-49656371D01*
X219394900Y-49661452D01*
X219394900Y-49937228D01*
X219342110Y-50202624D01*
X219341099Y-50207704D01*
X219235565Y-50462487D01*
X219082349Y-50691791D01*
X218887351Y-50886789D01*
X218887348Y-50886791D01*
X218658049Y-51040004D01*
X218658048Y-51040005D01*
X218658047Y-51040005D01*
X218620648Y-51055496D01*
X218403265Y-51145539D01*
X218268027Y-51172439D01*
X218132789Y-51199340D01*
X217857011Y-51199340D01*
X217721774Y-51172440D01*
X217586535Y-51145539D01*
X217369152Y-51055496D01*
X217331753Y-51040005D01*
X217331752Y-51040005D01*
X217331751Y-51040004D01*
X217102452Y-50886791D01*
X217102449Y-50886789D01*
X216907451Y-50691791D01*
X216754235Y-50462487D01*
X216648701Y-50207704D01*
X216647691Y-50202624D01*
X216594900Y-49937228D01*
X216594900Y-49661452D01*
X216595911Y-49656371D01*
X216648701Y-49390976D01*
X216650806Y-49385895D01*
X216754236Y-49136191D01*
X216907449Y-48906892D01*
X216907451Y-48906889D01*
X217102449Y-48711891D01*
X217110055Y-48706809D01*
X217331751Y-48558676D01*
X217344018Y-48553595D01*
X217406377Y-48527765D01*
X217586535Y-48453141D01*
X217721774Y-48426240D01*
X217857011Y-48399340D01*
X218132789Y-48399340D01*
X218268027Y-48426241D01*
X218268027Y-48426241D01*
G37*
G36*
X205771227Y-48421161D02*
X205906465Y-48448061D01*
X206161249Y-48553596D01*
X206387497Y-48704771D01*
X206390551Y-48706811D01*
X206585549Y-48901809D01*
X206585551Y-48901812D01*
X206738764Y-49131111D01*
X206844299Y-49385895D01*
X206871199Y-49521133D01*
X206898100Y-49656371D01*
X206898100Y-49932149D01*
X206871200Y-50067386D01*
X206844299Y-50202625D01*
X206738764Y-50457409D01*
X206587589Y-50683657D01*
X206585549Y-50686711D01*
X206390551Y-50881709D01*
X206390548Y-50881711D01*
X206161249Y-51034924D01*
X206161248Y-51034925D01*
X206161247Y-51034925D01*
X206111586Y-51055495D01*
X205906465Y-51140459D01*
X205771227Y-51167359D01*
X205635989Y-51194260D01*
X205360211Y-51194260D01*
X205224973Y-51167359D01*
X205089735Y-51140459D01*
X204884614Y-51055495D01*
X204834953Y-51034925D01*
X204834952Y-51034925D01*
X204834951Y-51034924D01*
X204605652Y-50881711D01*
X204605649Y-50881709D01*
X204410651Y-50686711D01*
X204408611Y-50683657D01*
X204257436Y-50457409D01*
X204151901Y-50202625D01*
X204125000Y-50067386D01*
X204098100Y-49932149D01*
X204098100Y-49656371D01*
X204125001Y-49521133D01*
X204151901Y-49385895D01*
X204257436Y-49131111D01*
X204410649Y-48901812D01*
X204410651Y-48901809D01*
X204605649Y-48706811D01*
X204608703Y-48704771D01*
X204834951Y-48553596D01*
X205089735Y-48448061D01*
X205224974Y-48421160D01*
X205360211Y-48394260D01*
X205635989Y-48394260D01*
X205771227Y-48421161D01*
X205771227Y-48421161D01*
G37*
G36*
X189631072Y-45347840D02*
X189881304Y-45451489D01*
X190106515Y-45601971D01*
X190298029Y-45793485D01*
X190448511Y-46018696D01*
X190552160Y-46268928D01*
X190605000Y-46534573D01*
X190605000Y-46805427D01*
X190552160Y-47071072D01*
X190448511Y-47321304D01*
X190298029Y-47546515D01*
X190106515Y-47738029D01*
X189881304Y-47888511D01*
X189631072Y-47992160D01*
X189365427Y-48045000D01*
X189094573Y-48045000D01*
X188828928Y-47992160D01*
X188578696Y-47888511D01*
X188353485Y-47738029D01*
X188161971Y-47546515D01*
X188011489Y-47321304D01*
X187907840Y-47071072D01*
X187855000Y-46805427D01*
X187855000Y-46534573D01*
X187907840Y-46268928D01*
X188011489Y-46018696D01*
X188161971Y-45793485D01*
X188353485Y-45601971D01*
X188578696Y-45451489D01*
X188828928Y-45347840D01*
X189094573Y-45295000D01*
X189365427Y-45295000D01*
X189631072Y-45347840D01*
X189631072Y-45347840D01*
G37*
G36*
X208270587Y-43424981D02*
X208405825Y-43451881D01*
X208660609Y-43557416D01*
X208886857Y-43708591D01*
X208889911Y-43710631D01*
X209084909Y-43905629D01*
X209238125Y-44134933D01*
X209343659Y-44389716D01*
X209397460Y-44660191D01*
X209397460Y-44935969D01*
X209343659Y-45206444D01*
X209238125Y-45461227D01*
X209084909Y-45690531D01*
X208889911Y-45885529D01*
X208889908Y-45885531D01*
X208660609Y-46038744D01*
X208405825Y-46144279D01*
X208270586Y-46171180D01*
X208135349Y-46198080D01*
X207859571Y-46198080D01*
X207724334Y-46171180D01*
X207589095Y-46144279D01*
X207334311Y-46038744D01*
X207105012Y-45885531D01*
X207105009Y-45885529D01*
X206910011Y-45690531D01*
X206756795Y-45461227D01*
X206651261Y-45206444D01*
X206597460Y-44935969D01*
X206597460Y-44660191D01*
X206651261Y-44389716D01*
X206756795Y-44134933D01*
X206910011Y-43905629D01*
X207105009Y-43710631D01*
X207108063Y-43708591D01*
X207334311Y-43557416D01*
X207589095Y-43451881D01*
X207724333Y-43424981D01*
X207859571Y-43398080D01*
X208135349Y-43398080D01*
X208270587Y-43424981D01*
X208270587Y-43424981D01*
G37*
G36*
X189631072Y-40347840D02*
X189881304Y-40451489D01*
X190106515Y-40601971D01*
X190298029Y-40793485D01*
X190448511Y-41018696D01*
X190552160Y-41268928D01*
X190605000Y-41534573D01*
X190605000Y-41805427D01*
X190552160Y-42071072D01*
X190448511Y-42321304D01*
X190298029Y-42546515D01*
X190106515Y-42738029D01*
X189881304Y-42888511D01*
X189631072Y-42992160D01*
X189365427Y-43045000D01*
X189094573Y-43045000D01*
X188828928Y-42992160D01*
X188578696Y-42888511D01*
X188353485Y-42738029D01*
X188161971Y-42546515D01*
X188011489Y-42321304D01*
X187907840Y-42071072D01*
X187855000Y-41805427D01*
X187855000Y-41534573D01*
X187907840Y-41268928D01*
X188011489Y-41018696D01*
X188161971Y-40793485D01*
X188353485Y-40601971D01*
X188578696Y-40451489D01*
X188828928Y-40347840D01*
X189094573Y-40295000D01*
X189365427Y-40295000D01*
X189631072Y-40347840D01*
X189631072Y-40347840D01*
G37*
G36*
X205771227Y-38428801D02*
X205906465Y-38455701D01*
X206086623Y-38530325D01*
X206148983Y-38556155D01*
X206161249Y-38561236D01*
X206288405Y-38646199D01*
X206390551Y-38714451D01*
X206585549Y-38909449D01*
X206585551Y-38909452D01*
X206738764Y-39138751D01*
X206842195Y-39388455D01*
X206844299Y-39393536D01*
X206897090Y-39658931D01*
X206898100Y-39664012D01*
X206898100Y-39939788D01*
X206844299Y-40210265D01*
X206787313Y-40347841D01*
X206738765Y-40465047D01*
X206585549Y-40694351D01*
X206390551Y-40889349D01*
X206390548Y-40889351D01*
X206161249Y-41042564D01*
X205906465Y-41148099D01*
X205771227Y-41174999D01*
X205635989Y-41201900D01*
X205360211Y-41201900D01*
X205224974Y-41175000D01*
X205089735Y-41148099D01*
X204834951Y-41042564D01*
X204605652Y-40889351D01*
X204605649Y-40889349D01*
X204410651Y-40694351D01*
X204257435Y-40465047D01*
X204208887Y-40347841D01*
X204151901Y-40210265D01*
X204098100Y-39939788D01*
X204098100Y-39664012D01*
X204099111Y-39658931D01*
X204151901Y-39393536D01*
X204154006Y-39388455D01*
X204257436Y-39138751D01*
X204410649Y-38909452D01*
X204410651Y-38909449D01*
X204605649Y-38714451D01*
X204707795Y-38646199D01*
X204834951Y-38561236D01*
X204847218Y-38556155D01*
X204909577Y-38530325D01*
X205089735Y-38455701D01*
X205224974Y-38428800D01*
X205360211Y-38401900D01*
X205635989Y-38401900D01*
X205771227Y-38428801D01*
X205771227Y-38428801D01*
G37*
G36*
X218268027Y-38423721D02*
X218403265Y-38450621D01*
X218583423Y-38525245D01*
X218620651Y-38540665D01*
X218658049Y-38556156D01*
X218873326Y-38700000D01*
X218887351Y-38709371D01*
X219082349Y-38904369D01*
X219082351Y-38904372D01*
X219235564Y-39133671D01*
X219341099Y-39388455D01*
X219368000Y-39523694D01*
X219394900Y-39658931D01*
X219394900Y-39934709D01*
X219367999Y-40069947D01*
X219341099Y-40205185D01*
X219235564Y-40459969D01*
X219140683Y-40601968D01*
X219082349Y-40689271D01*
X218887351Y-40884269D01*
X218887348Y-40884271D01*
X218658049Y-41037484D01*
X218658048Y-41037485D01*
X218658047Y-41037485D01*
X218583423Y-41068395D01*
X218403265Y-41143019D01*
X218268026Y-41169920D01*
X218132789Y-41196820D01*
X217857011Y-41196820D01*
X217721773Y-41169919D01*
X217586535Y-41143019D01*
X217406377Y-41068395D01*
X217331753Y-41037485D01*
X217331752Y-41037485D01*
X217331751Y-41037484D01*
X217102452Y-40884271D01*
X217102449Y-40884269D01*
X216907451Y-40689271D01*
X216849117Y-40601968D01*
X216754236Y-40459969D01*
X216648701Y-40205185D01*
X216621801Y-40069947D01*
X216594900Y-39934709D01*
X216594900Y-39658931D01*
X216621800Y-39523694D01*
X216648701Y-39388455D01*
X216754236Y-39133671D01*
X216907449Y-38904372D01*
X216907451Y-38904369D01*
X217102449Y-38709371D01*
X217116474Y-38700000D01*
X217331751Y-38556156D01*
X217369150Y-38540665D01*
X217406377Y-38525245D01*
X217586535Y-38450621D01*
X217721773Y-38423721D01*
X217857011Y-38396820D01*
X218132789Y-38396820D01*
X218268027Y-38423721D01*
X218268027Y-38423721D01*
G37*
G36*
X203273126Y-35926900D02*
X203408365Y-35953801D01*
X203663149Y-36059336D01*
X203889397Y-36210511D01*
X203892451Y-36212551D01*
X204087449Y-36407549D01*
X204240665Y-36636853D01*
X204346199Y-36891636D01*
X204400000Y-37162111D01*
X204400000Y-37437889D01*
X204346199Y-37708364D01*
X204240665Y-37963147D01*
X204087449Y-38192451D01*
X203892451Y-38387449D01*
X203892448Y-38387451D01*
X203663149Y-38540664D01*
X203663148Y-38540665D01*
X203663147Y-38540665D01*
X203625748Y-38556156D01*
X203408365Y-38646199D01*
X203273127Y-38673099D01*
X203137889Y-38700000D01*
X202862111Y-38700000D01*
X202726873Y-38673099D01*
X202591635Y-38646199D01*
X202374252Y-38556156D01*
X202336853Y-38540665D01*
X202336852Y-38540665D01*
X202336851Y-38540664D01*
X202107552Y-38387451D01*
X202107549Y-38387449D01*
X201912551Y-38192451D01*
X201759335Y-37963147D01*
X201653801Y-37708364D01*
X201600000Y-37437889D01*
X201600000Y-37162111D01*
X201653801Y-36891636D01*
X201759335Y-36636853D01*
X201912551Y-36407549D01*
X202107549Y-36212551D01*
X202110603Y-36210511D01*
X202336851Y-36059336D01*
X202591635Y-35953801D01*
X202726873Y-35926901D01*
X202862111Y-35900000D01*
X203137889Y-35900000D01*
X203273126Y-35926900D01*
X203273126Y-35926900D01*
G37*
G36*
X208273126Y-35926900D02*
X208408365Y-35953801D01*
X208663149Y-36059336D01*
X208889397Y-36210511D01*
X208892451Y-36212551D01*
X209087449Y-36407549D01*
X209240665Y-36636853D01*
X209346199Y-36891636D01*
X209400000Y-37162111D01*
X209400000Y-37437889D01*
X209346199Y-37708364D01*
X209240665Y-37963147D01*
X209087449Y-38192451D01*
X208892451Y-38387449D01*
X208892448Y-38387451D01*
X208663149Y-38540664D01*
X208663148Y-38540665D01*
X208663147Y-38540665D01*
X208625748Y-38556156D01*
X208408365Y-38646199D01*
X208273127Y-38673099D01*
X208137889Y-38700000D01*
X207862111Y-38700000D01*
X207726873Y-38673099D01*
X207591635Y-38646199D01*
X207374252Y-38556156D01*
X207336853Y-38540665D01*
X207336852Y-38540665D01*
X207336851Y-38540664D01*
X207107552Y-38387451D01*
X207107549Y-38387449D01*
X206912551Y-38192451D01*
X206759335Y-37963147D01*
X206653801Y-37708364D01*
X206600000Y-37437889D01*
X206600000Y-37162111D01*
X206653801Y-36891636D01*
X206759335Y-36636853D01*
X206912551Y-36407549D01*
X207107549Y-36212551D01*
X207110603Y-36210511D01*
X207336851Y-36059336D01*
X207591635Y-35953801D01*
X207726873Y-35926901D01*
X207862111Y-35900000D01*
X208137889Y-35900000D01*
X208273126Y-35926900D01*
X208273126Y-35926900D01*
G37*
G36*
X148029452Y-32159127D02*
X148167105Y-32186508D01*
X148339994Y-32258121D01*
X148495590Y-32362087D01*
X148627913Y-32494410D01*
X148731879Y-32650006D01*
X148789518Y-32789158D01*
X148801067Y-32810764D01*
X148816612Y-32829706D01*
X148835554Y-32845251D01*
X148857165Y-32856802D01*
X148880614Y-32863915D01*
X148905000Y-32866317D01*
X148929387Y-32863915D01*
X148952836Y-32856802D01*
X148974447Y-32845250D01*
X148993389Y-32829705D01*
X149008934Y-32810763D01*
X149020482Y-32789158D01*
X149078121Y-32650006D01*
X149182087Y-32494410D01*
X149314410Y-32362087D01*
X149470006Y-32258121D01*
X149642895Y-32186508D01*
X149780548Y-32159127D01*
X149826432Y-32150000D01*
X150013568Y-32150000D01*
X150059452Y-32159127D01*
X150197105Y-32186508D01*
X150369994Y-32258121D01*
X150525590Y-32362087D01*
X150657913Y-32494410D01*
X150761879Y-32650006D01*
X150833492Y-32822895D01*
X150870000Y-33006433D01*
X150870000Y-33193567D01*
X150833492Y-33377105D01*
X150761879Y-33549994D01*
X150657913Y-33705590D01*
X150525590Y-33837913D01*
X150369994Y-33941879D01*
X150197105Y-34013492D01*
X150059451Y-34040873D01*
X150013568Y-34050000D01*
X149826432Y-34050000D01*
X149780549Y-34040873D01*
X149642895Y-34013492D01*
X149470006Y-33941879D01*
X149314410Y-33837913D01*
X149182087Y-33705590D01*
X149078121Y-33549994D01*
X149020482Y-33410842D01*
X149008933Y-33389236D01*
X148993388Y-33370294D01*
X148974446Y-33354749D01*
X148952835Y-33343198D01*
X148929386Y-33336085D01*
X148905000Y-33333683D01*
X148880613Y-33336085D01*
X148857164Y-33343198D01*
X148835553Y-33354750D01*
X148816611Y-33370295D01*
X148801066Y-33389237D01*
X148789518Y-33410842D01*
X148731879Y-33549994D01*
X148627913Y-33705590D01*
X148495590Y-33837913D01*
X148339994Y-33941879D01*
X148167105Y-34013492D01*
X148029451Y-34040873D01*
X147983568Y-34050000D01*
X147796432Y-34050000D01*
X147750549Y-34040873D01*
X147612895Y-34013492D01*
X147440006Y-33941879D01*
X147284410Y-33837913D01*
X147152087Y-33705590D01*
X147048121Y-33549994D01*
X146976508Y-33377105D01*
X146940000Y-33193567D01*
X146940000Y-33006433D01*
X146976508Y-32822895D01*
X147048121Y-32650006D01*
X147152087Y-32494410D01*
X147284410Y-32362087D01*
X147440006Y-32258121D01*
X147612895Y-32186508D01*
X147750548Y-32159127D01*
X147796432Y-32150000D01*
X147983568Y-32150000D01*
X148029452Y-32159127D01*
X148029452Y-32159127D01*
G37*
G36*
X145489452Y-32159127D02*
X145627105Y-32186508D01*
X145799994Y-32258121D01*
X145955590Y-32362087D01*
X146087913Y-32494410D01*
X146191879Y-32650006D01*
X146263492Y-32822895D01*
X146300000Y-33006433D01*
X146300000Y-33193567D01*
X146263492Y-33377105D01*
X146191879Y-33549994D01*
X146087913Y-33705590D01*
X145955590Y-33837913D01*
X145799994Y-33941879D01*
X145627105Y-34013492D01*
X145489451Y-34040873D01*
X145443568Y-34050000D01*
X145256432Y-34050000D01*
X145210549Y-34040873D01*
X145072895Y-34013492D01*
X144900006Y-33941879D01*
X144744410Y-33837913D01*
X144612087Y-33705590D01*
X144508121Y-33549994D01*
X144436508Y-33377105D01*
X144400000Y-33193567D01*
X144400000Y-33006433D01*
X144436508Y-32822895D01*
X144508121Y-32650006D01*
X144612087Y-32494410D01*
X144744410Y-32362087D01*
X144900006Y-32258121D01*
X145072895Y-32186508D01*
X145210548Y-32159127D01*
X145256432Y-32150000D01*
X145443568Y-32150000D01*
X145489452Y-32159127D01*
X145489452Y-32159127D01*
G37*
G36*
X122529452Y-32159127D02*
X122667105Y-32186508D01*
X122839994Y-32258121D01*
X122995590Y-32362087D01*
X123127913Y-32494410D01*
X123231879Y-32650006D01*
X123303492Y-32822895D01*
X123340000Y-33006433D01*
X123340000Y-33193567D01*
X123303492Y-33377105D01*
X123231879Y-33549994D01*
X123127913Y-33705590D01*
X122995590Y-33837913D01*
X122839994Y-33941879D01*
X122667105Y-34013492D01*
X122529451Y-34040873D01*
X122483568Y-34050000D01*
X122296432Y-34050000D01*
X122250549Y-34040873D01*
X122112895Y-34013492D01*
X121940006Y-33941879D01*
X121784410Y-33837913D01*
X121652087Y-33705590D01*
X121548121Y-33549994D01*
X121476508Y-33377105D01*
X121440000Y-33193567D01*
X121440000Y-33006433D01*
X121476508Y-32822895D01*
X121548121Y-32650006D01*
X121652087Y-32494410D01*
X121784410Y-32362087D01*
X121940006Y-32258121D01*
X122112895Y-32186508D01*
X122250548Y-32159127D01*
X122296432Y-32150000D01*
X122483568Y-32150000D01*
X122529452Y-32159127D01*
X122529452Y-32159127D01*
G37*
G36*
X125069452Y-32159127D02*
X125207105Y-32186508D01*
X125379994Y-32258121D01*
X125535590Y-32362087D01*
X125667913Y-32494410D01*
X125771879Y-32650006D01*
X125829518Y-32789158D01*
X125841067Y-32810764D01*
X125856612Y-32829706D01*
X125875554Y-32845251D01*
X125897165Y-32856802D01*
X125920614Y-32863915D01*
X125945000Y-32866317D01*
X125969387Y-32863915D01*
X125992836Y-32856802D01*
X126014447Y-32845250D01*
X126033389Y-32829705D01*
X126048934Y-32810763D01*
X126060482Y-32789158D01*
X126118121Y-32650006D01*
X126222087Y-32494410D01*
X126354410Y-32362087D01*
X126510006Y-32258121D01*
X126682895Y-32186508D01*
X126820548Y-32159127D01*
X126866432Y-32150000D01*
X127053568Y-32150000D01*
X127099452Y-32159127D01*
X127237105Y-32186508D01*
X127409994Y-32258121D01*
X127565590Y-32362087D01*
X127697913Y-32494410D01*
X127801879Y-32650006D01*
X127873492Y-32822895D01*
X127910000Y-33006433D01*
X127910000Y-33193567D01*
X127873492Y-33377105D01*
X127801879Y-33549994D01*
X127697913Y-33705590D01*
X127565590Y-33837913D01*
X127409994Y-33941879D01*
X127237105Y-34013492D01*
X127099451Y-34040873D01*
X127053568Y-34050000D01*
X126866432Y-34050000D01*
X126820549Y-34040873D01*
X126682895Y-34013492D01*
X126510006Y-33941879D01*
X126354410Y-33837913D01*
X126222087Y-33705590D01*
X126118121Y-33549994D01*
X126060482Y-33410842D01*
X126048933Y-33389236D01*
X126033388Y-33370294D01*
X126014446Y-33354749D01*
X125992835Y-33343198D01*
X125969386Y-33336085D01*
X125945000Y-33333683D01*
X125920613Y-33336085D01*
X125897164Y-33343198D01*
X125875553Y-33354750D01*
X125856611Y-33370295D01*
X125841066Y-33389237D01*
X125829518Y-33410842D01*
X125771879Y-33549994D01*
X125667913Y-33705590D01*
X125535590Y-33837913D01*
X125379994Y-33941879D01*
X125207105Y-34013492D01*
X125069451Y-34040873D01*
X125023568Y-34050000D01*
X124836432Y-34050000D01*
X124790549Y-34040873D01*
X124652895Y-34013492D01*
X124480006Y-33941879D01*
X124324410Y-33837913D01*
X124192087Y-33705590D01*
X124088121Y-33549994D01*
X124016508Y-33377105D01*
X123980000Y-33193567D01*
X123980000Y-33006433D01*
X124016508Y-32822895D01*
X124088121Y-32650006D01*
X124192087Y-32494410D01*
X124324410Y-32362087D01*
X124480006Y-32258121D01*
X124652895Y-32186508D01*
X124790548Y-32159127D01*
X124836432Y-32150000D01*
X125023568Y-32150000D01*
X125069452Y-32159127D01*
X125069452Y-32159127D01*
G37*
G36*
X175599452Y-32159127D02*
X175737105Y-32186508D01*
X175909994Y-32258121D01*
X176065590Y-32362087D01*
X176197913Y-32494410D01*
X176301879Y-32650006D01*
X176373492Y-32822895D01*
X176410000Y-33006433D01*
X176410000Y-33193567D01*
X176373492Y-33377105D01*
X176301879Y-33549994D01*
X176197913Y-33705590D01*
X176065590Y-33837913D01*
X175909994Y-33941879D01*
X175737105Y-34013492D01*
X175599451Y-34040873D01*
X175553568Y-34050000D01*
X175366432Y-34050000D01*
X175320549Y-34040873D01*
X175182895Y-34013492D01*
X175010006Y-33941879D01*
X174854410Y-33837913D01*
X174722087Y-33705590D01*
X174618121Y-33549994D01*
X174546508Y-33377105D01*
X174510000Y-33193567D01*
X174510000Y-33006433D01*
X174546508Y-32822895D01*
X174618121Y-32650006D01*
X174722087Y-32494410D01*
X174854410Y-32362087D01*
X175010006Y-32258121D01*
X175182895Y-32186508D01*
X175320548Y-32159127D01*
X175366432Y-32150000D01*
X175553568Y-32150000D01*
X175599452Y-32159127D01*
X175599452Y-32159127D01*
G37*
G36*
X129639452Y-32159127D02*
X129777105Y-32186508D01*
X129949994Y-32258121D01*
X130105590Y-32362087D01*
X130237913Y-32494410D01*
X130341879Y-32650006D01*
X130413492Y-32822895D01*
X130450000Y-33006433D01*
X130450000Y-33193567D01*
X130413492Y-33377105D01*
X130341879Y-33549994D01*
X130237913Y-33705590D01*
X130105590Y-33837913D01*
X129949994Y-33941879D01*
X129777105Y-34013492D01*
X129639451Y-34040873D01*
X129593568Y-34050000D01*
X129406432Y-34050000D01*
X129360549Y-34040873D01*
X129222895Y-34013492D01*
X129050006Y-33941879D01*
X128894410Y-33837913D01*
X128762087Y-33705590D01*
X128658121Y-33549994D01*
X128586508Y-33377105D01*
X128550000Y-33193567D01*
X128550000Y-33006433D01*
X128586508Y-32822895D01*
X128658121Y-32650006D01*
X128762087Y-32494410D01*
X128894410Y-32362087D01*
X129050006Y-32258121D01*
X129222895Y-32186508D01*
X129360548Y-32159127D01*
X129406432Y-32150000D01*
X129593568Y-32150000D01*
X129639452Y-32159127D01*
X129639452Y-32159127D01*
G37*
G36*
X171029452Y-32159127D02*
X171167105Y-32186508D01*
X171339994Y-32258121D01*
X171495590Y-32362087D01*
X171627913Y-32494410D01*
X171731879Y-32650006D01*
X171789518Y-32789158D01*
X171801067Y-32810764D01*
X171816612Y-32829706D01*
X171835554Y-32845251D01*
X171857165Y-32856802D01*
X171880614Y-32863915D01*
X171905000Y-32866317D01*
X171929387Y-32863915D01*
X171952836Y-32856802D01*
X171974447Y-32845250D01*
X171993389Y-32829705D01*
X172008934Y-32810763D01*
X172020482Y-32789158D01*
X172078121Y-32650006D01*
X172182087Y-32494410D01*
X172314410Y-32362087D01*
X172470006Y-32258121D01*
X172642895Y-32186508D01*
X172780548Y-32159127D01*
X172826432Y-32150000D01*
X173013568Y-32150000D01*
X173059452Y-32159127D01*
X173197105Y-32186508D01*
X173369994Y-32258121D01*
X173525590Y-32362087D01*
X173657913Y-32494410D01*
X173761879Y-32650006D01*
X173833492Y-32822895D01*
X173870000Y-33006433D01*
X173870000Y-33193567D01*
X173833492Y-33377105D01*
X173761879Y-33549994D01*
X173657913Y-33705590D01*
X173525590Y-33837913D01*
X173369994Y-33941879D01*
X173197105Y-34013492D01*
X173059451Y-34040873D01*
X173013568Y-34050000D01*
X172826432Y-34050000D01*
X172780549Y-34040873D01*
X172642895Y-34013492D01*
X172470006Y-33941879D01*
X172314410Y-33837913D01*
X172182087Y-33705590D01*
X172078121Y-33549994D01*
X172020482Y-33410842D01*
X172008933Y-33389236D01*
X171993388Y-33370294D01*
X171974446Y-33354749D01*
X171952835Y-33343198D01*
X171929386Y-33336085D01*
X171905000Y-33333683D01*
X171880613Y-33336085D01*
X171857164Y-33343198D01*
X171835553Y-33354750D01*
X171816611Y-33370295D01*
X171801066Y-33389237D01*
X171789518Y-33410842D01*
X171731879Y-33549994D01*
X171627913Y-33705590D01*
X171495590Y-33837913D01*
X171339994Y-33941879D01*
X171167105Y-34013492D01*
X171029451Y-34040873D01*
X170983568Y-34050000D01*
X170796432Y-34050000D01*
X170750549Y-34040873D01*
X170612895Y-34013492D01*
X170440006Y-33941879D01*
X170284410Y-33837913D01*
X170152087Y-33705590D01*
X170048121Y-33549994D01*
X169976508Y-33377105D01*
X169940000Y-33193567D01*
X169940000Y-33006433D01*
X169976508Y-32822895D01*
X170048121Y-32650006D01*
X170152087Y-32494410D01*
X170284410Y-32362087D01*
X170440006Y-32258121D01*
X170612895Y-32186508D01*
X170750548Y-32159127D01*
X170796432Y-32150000D01*
X170983568Y-32150000D01*
X171029452Y-32159127D01*
X171029452Y-32159127D01*
G37*
G36*
X168489452Y-32159127D02*
X168627105Y-32186508D01*
X168799994Y-32258121D01*
X168955590Y-32362087D01*
X169087913Y-32494410D01*
X169191879Y-32650006D01*
X169263492Y-32822895D01*
X169300000Y-33006433D01*
X169300000Y-33193567D01*
X169263492Y-33377105D01*
X169191879Y-33549994D01*
X169087913Y-33705590D01*
X168955590Y-33837913D01*
X168799994Y-33941879D01*
X168627105Y-34013492D01*
X168489451Y-34040873D01*
X168443568Y-34050000D01*
X168256432Y-34050000D01*
X168210549Y-34040873D01*
X168072895Y-34013492D01*
X167900006Y-33941879D01*
X167744410Y-33837913D01*
X167612087Y-33705590D01*
X167508121Y-33549994D01*
X167436508Y-33377105D01*
X167400000Y-33193567D01*
X167400000Y-33006433D01*
X167436508Y-32822895D01*
X167508121Y-32650006D01*
X167612087Y-32494410D01*
X167744410Y-32362087D01*
X167900006Y-32258121D01*
X168072895Y-32186508D01*
X168210548Y-32159127D01*
X168256432Y-32150000D01*
X168443568Y-32150000D01*
X168489452Y-32159127D01*
X168489452Y-32159127D01*
G37*
G36*
X152599452Y-32159127D02*
X152737105Y-32186508D01*
X152909994Y-32258121D01*
X153065590Y-32362087D01*
X153197913Y-32494410D01*
X153301879Y-32650006D01*
X153373492Y-32822895D01*
X153410000Y-33006433D01*
X153410000Y-33193567D01*
X153373492Y-33377105D01*
X153301879Y-33549994D01*
X153197913Y-33705590D01*
X153065590Y-33837913D01*
X152909994Y-33941879D01*
X152737105Y-34013492D01*
X152599451Y-34040873D01*
X152553568Y-34050000D01*
X152366432Y-34050000D01*
X152320549Y-34040873D01*
X152182895Y-34013492D01*
X152010006Y-33941879D01*
X151854410Y-33837913D01*
X151722087Y-33705590D01*
X151618121Y-33549994D01*
X151546508Y-33377105D01*
X151510000Y-33193567D01*
X151510000Y-33006433D01*
X151546508Y-32822895D01*
X151618121Y-32650006D01*
X151722087Y-32494410D01*
X151854410Y-32362087D01*
X152010006Y-32258121D01*
X152182895Y-32186508D01*
X152320548Y-32159127D01*
X152366432Y-32150000D01*
X152553568Y-32150000D01*
X152599452Y-32159127D01*
X152599452Y-32159127D01*
G37*
G36*
X189631072Y-30347840D02*
X189881304Y-30451489D01*
X189881307Y-30451491D01*
X190099730Y-30597437D01*
X190106515Y-30601971D01*
X190298029Y-30793485D01*
X190448511Y-31018696D01*
X190552160Y-31268928D01*
X190605000Y-31534573D01*
X190605000Y-31805427D01*
X190552160Y-32071072D01*
X190448511Y-32321304D01*
X190298029Y-32546515D01*
X190106515Y-32738029D01*
X190106512Y-32738031D01*
X190106511Y-32738032D01*
X189881307Y-32888509D01*
X189881304Y-32888511D01*
X189631072Y-32992160D01*
X189365427Y-33045000D01*
X189094573Y-33045000D01*
X188828928Y-32992160D01*
X188578696Y-32888511D01*
X188578693Y-32888509D01*
X188353489Y-32738032D01*
X188353488Y-32738031D01*
X188353485Y-32738029D01*
X188161971Y-32546515D01*
X188011489Y-32321304D01*
X187907840Y-32071072D01*
X187855000Y-31805427D01*
X187855000Y-31534573D01*
X187907840Y-31268928D01*
X188011489Y-31018696D01*
X188161971Y-30793485D01*
X188353485Y-30601971D01*
X188360271Y-30597437D01*
X188578693Y-30451491D01*
X188578696Y-30451489D01*
X188828928Y-30347840D01*
X189094573Y-30295000D01*
X189365427Y-30295000D01*
X189631072Y-30347840D01*
X189631072Y-30347840D01*
G37*
G36*
X179394663Y-28771220D02*
X179515872Y-28795330D01*
X179825252Y-28923479D01*
X180103687Y-29109523D01*
X180340477Y-29346313D01*
X180526521Y-29624748D01*
X180606024Y-29816686D01*
X180654670Y-29934129D01*
X180720000Y-30262563D01*
X180720000Y-30597437D01*
X180719098Y-30601971D01*
X180654670Y-30925872D01*
X180526521Y-31235252D01*
X180340477Y-31513687D01*
X180103687Y-31750477D01*
X179825252Y-31936521D01*
X179515872Y-32064670D01*
X179406393Y-32086447D01*
X179187437Y-32130000D01*
X178852563Y-32130000D01*
X178633607Y-32086447D01*
X178524128Y-32064670D01*
X178214748Y-31936521D01*
X177936313Y-31750477D01*
X177699523Y-31513687D01*
X177513479Y-31235252D01*
X177385330Y-30925872D01*
X177320902Y-30601971D01*
X177320000Y-30597437D01*
X177320000Y-30262563D01*
X177385330Y-29934129D01*
X177433976Y-29816686D01*
X177513479Y-29624748D01*
X177699523Y-29346313D01*
X177936313Y-29109523D01*
X178214748Y-28923479D01*
X178524128Y-28795330D01*
X178645337Y-28771220D01*
X178852563Y-28730000D01*
X179187437Y-28730000D01*
X179394663Y-28771220D01*
X179394663Y-28771220D01*
G37*
G36*
X165674663Y-28771220D02*
X165795872Y-28795330D01*
X166105252Y-28923479D01*
X166383687Y-29109523D01*
X166620477Y-29346313D01*
X166806521Y-29624748D01*
X166886024Y-29816686D01*
X166934670Y-29934129D01*
X167000000Y-30262563D01*
X167000000Y-30597437D01*
X166999098Y-30601971D01*
X166934670Y-30925872D01*
X166806521Y-31235252D01*
X166620477Y-31513687D01*
X166383687Y-31750477D01*
X166105252Y-31936521D01*
X165795872Y-32064670D01*
X165686393Y-32086447D01*
X165467437Y-32130000D01*
X165132563Y-32130000D01*
X164913607Y-32086447D01*
X164804128Y-32064670D01*
X164494748Y-31936521D01*
X164216313Y-31750477D01*
X163979523Y-31513687D01*
X163793479Y-31235252D01*
X163665330Y-30925872D01*
X163600902Y-30601971D01*
X163600000Y-30597437D01*
X163600000Y-30262563D01*
X163665330Y-29934129D01*
X163713976Y-29816686D01*
X163793479Y-29624748D01*
X163979523Y-29346313D01*
X164216313Y-29109523D01*
X164494748Y-28923479D01*
X164804128Y-28795330D01*
X164925337Y-28771220D01*
X165132563Y-28730000D01*
X165467437Y-28730000D01*
X165674663Y-28771220D01*
X165674663Y-28771220D01*
G37*
G36*
X156394663Y-28771220D02*
X156515872Y-28795330D01*
X156825252Y-28923479D01*
X157103687Y-29109523D01*
X157340477Y-29346313D01*
X157526521Y-29624748D01*
X157606024Y-29816686D01*
X157654670Y-29934129D01*
X157720000Y-30262563D01*
X157720000Y-30597437D01*
X157719098Y-30601971D01*
X157654670Y-30925872D01*
X157526521Y-31235252D01*
X157340477Y-31513687D01*
X157103687Y-31750477D01*
X156825252Y-31936521D01*
X156515872Y-32064670D01*
X156406393Y-32086447D01*
X156187437Y-32130000D01*
X155852563Y-32130000D01*
X155633607Y-32086447D01*
X155524128Y-32064670D01*
X155214748Y-31936521D01*
X154936313Y-31750477D01*
X154699523Y-31513687D01*
X154513479Y-31235252D01*
X154385330Y-30925872D01*
X154320902Y-30601971D01*
X154320000Y-30597437D01*
X154320000Y-30262563D01*
X154385330Y-29934129D01*
X154433976Y-29816686D01*
X154513479Y-29624748D01*
X154699523Y-29346313D01*
X154936313Y-29109523D01*
X155214748Y-28923479D01*
X155524128Y-28795330D01*
X155645337Y-28771220D01*
X155852563Y-28730000D01*
X156187437Y-28730000D01*
X156394663Y-28771220D01*
X156394663Y-28771220D01*
G37*
G36*
X142674663Y-28771220D02*
X142795872Y-28795330D01*
X143105252Y-28923479D01*
X143383687Y-29109523D01*
X143620477Y-29346313D01*
X143806521Y-29624748D01*
X143886024Y-29816686D01*
X143934670Y-29934129D01*
X144000000Y-30262563D01*
X144000000Y-30597437D01*
X143999098Y-30601971D01*
X143934670Y-30925872D01*
X143806521Y-31235252D01*
X143620477Y-31513687D01*
X143383687Y-31750477D01*
X143105252Y-31936521D01*
X142795872Y-32064670D01*
X142686393Y-32086447D01*
X142467437Y-32130000D01*
X142132563Y-32130000D01*
X141913607Y-32086447D01*
X141804128Y-32064670D01*
X141494748Y-31936521D01*
X141216313Y-31750477D01*
X140979523Y-31513687D01*
X140793479Y-31235252D01*
X140665330Y-30925872D01*
X140600902Y-30601971D01*
X140600000Y-30597437D01*
X140600000Y-30262563D01*
X140665330Y-29934129D01*
X140713976Y-29816686D01*
X140793479Y-29624748D01*
X140979523Y-29346313D01*
X141216313Y-29109523D01*
X141494748Y-28923479D01*
X141804128Y-28795330D01*
X141925337Y-28771220D01*
X142132563Y-28730000D01*
X142467437Y-28730000D01*
X142674663Y-28771220D01*
X142674663Y-28771220D01*
G37*
G36*
X133434663Y-28771220D02*
X133555872Y-28795330D01*
X133865252Y-28923479D01*
X134143687Y-29109523D01*
X134380477Y-29346313D01*
X134566521Y-29624748D01*
X134646024Y-29816686D01*
X134694670Y-29934129D01*
X134760000Y-30262563D01*
X134760000Y-30597437D01*
X134759098Y-30601971D01*
X134694670Y-30925872D01*
X134566521Y-31235252D01*
X134380477Y-31513687D01*
X134143687Y-31750477D01*
X133865252Y-31936521D01*
X133555872Y-32064670D01*
X133446393Y-32086447D01*
X133227437Y-32130000D01*
X132892563Y-32130000D01*
X132673607Y-32086447D01*
X132564128Y-32064670D01*
X132254748Y-31936521D01*
X131976313Y-31750477D01*
X131739523Y-31513687D01*
X131553479Y-31235252D01*
X131425330Y-30925872D01*
X131360902Y-30601971D01*
X131360000Y-30597437D01*
X131360000Y-30262563D01*
X131425330Y-29934129D01*
X131473976Y-29816686D01*
X131553479Y-29624748D01*
X131739523Y-29346313D01*
X131976313Y-29109523D01*
X132254748Y-28923479D01*
X132564128Y-28795330D01*
X132685337Y-28771220D01*
X132892563Y-28730000D01*
X133227437Y-28730000D01*
X133434663Y-28771220D01*
X133434663Y-28771220D01*
G37*
G36*
X119714663Y-28771220D02*
X119835872Y-28795330D01*
X120145252Y-28923479D01*
X120423687Y-29109523D01*
X120660477Y-29346313D01*
X120846521Y-29624748D01*
X120926024Y-29816686D01*
X120974670Y-29934129D01*
X121040000Y-30262563D01*
X121040000Y-30597437D01*
X121039098Y-30601971D01*
X120974670Y-30925872D01*
X120846521Y-31235252D01*
X120660477Y-31513687D01*
X120423687Y-31750477D01*
X120145252Y-31936521D01*
X119835872Y-32064670D01*
X119726393Y-32086447D01*
X119507437Y-32130000D01*
X119172563Y-32130000D01*
X118953607Y-32086447D01*
X118844128Y-32064670D01*
X118534748Y-31936521D01*
X118256313Y-31750477D01*
X118019523Y-31513687D01*
X117833479Y-31235252D01*
X117705330Y-30925872D01*
X117640902Y-30601971D01*
X117640000Y-30597437D01*
X117640000Y-30262563D01*
X117705330Y-29934129D01*
X117753976Y-29816686D01*
X117833479Y-29624748D01*
X118019523Y-29346313D01*
X118256313Y-29109523D01*
X118534748Y-28923479D01*
X118844128Y-28795330D01*
X118965337Y-28771220D01*
X119172563Y-28730000D01*
X119507437Y-28730000D01*
X119714663Y-28771220D01*
X119714663Y-28771220D01*
G37*
G36*
X113463516Y-26002037D02*
X113597963Y-26028780D01*
X113752496Y-26092790D01*
X113971038Y-26183313D01*
X114306802Y-26407663D01*
X114592337Y-26693198D01*
X114816687Y-27028962D01*
X114971220Y-27402038D01*
X115044619Y-27771038D01*
X115050000Y-27798093D01*
X115050000Y-28201907D01*
X114971220Y-28597963D01*
X114963464Y-28616687D01*
X114816687Y-28971038D01*
X114592337Y-29306802D01*
X114306802Y-29592337D01*
X113971038Y-29816687D01*
X113752496Y-29907210D01*
X113597963Y-29971220D01*
X113465944Y-29997480D01*
X113201909Y-30050000D01*
X112798091Y-30050000D01*
X112534056Y-29997480D01*
X112402037Y-29971220D01*
X112247504Y-29907210D01*
X112028962Y-29816687D01*
X111693198Y-29592337D01*
X111407663Y-29306802D01*
X111183313Y-28971038D01*
X111036536Y-28616687D01*
X111028780Y-28597963D01*
X110950000Y-28201907D01*
X110950000Y-27798093D01*
X110955382Y-27771038D01*
X111028780Y-27402038D01*
X111183313Y-27028962D01*
X111407663Y-26693198D01*
X111693198Y-26407663D01*
X112028962Y-26183313D01*
X112247504Y-26092790D01*
X112402037Y-26028780D01*
X112536484Y-26002037D01*
X112798091Y-25950000D01*
X113201909Y-25950000D01*
X113463516Y-26002037D01*
X113463516Y-26002037D01*
G37*
G36*
X213469384Y-24783313D02*
X213697963Y-24828780D01*
X213852496Y-24892790D01*
X214071038Y-24983313D01*
X214406802Y-25207663D01*
X214692337Y-25493198D01*
X214916687Y-25828962D01*
X214988377Y-26002037D01*
X215063465Y-26183314D01*
X215071220Y-26202038D01*
X215150000Y-26598091D01*
X215150000Y-27001909D01*
X215071220Y-27397962D01*
X214916687Y-27771038D01*
X214692337Y-28106802D01*
X214406802Y-28392337D01*
X214071038Y-28616687D01*
X213852496Y-28707210D01*
X213697963Y-28771220D01*
X213576753Y-28795330D01*
X213301909Y-28850000D01*
X212898091Y-28850000D01*
X212623247Y-28795330D01*
X212502037Y-28771220D01*
X212347504Y-28707210D01*
X212128962Y-28616687D01*
X211793198Y-28392337D01*
X211507663Y-28106802D01*
X211283313Y-27771038D01*
X211128780Y-27397962D01*
X211050000Y-27001909D01*
X211050000Y-26598091D01*
X211128780Y-26202038D01*
X211136536Y-26183314D01*
X211211623Y-26002037D01*
X211283313Y-25828962D01*
X211507663Y-25493198D01*
X211793198Y-25207663D01*
X212128962Y-24983313D01*
X212347504Y-24892790D01*
X212502037Y-24828780D01*
X212730616Y-24783313D01*
X212898091Y-24750000D01*
X213301909Y-24750000D01*
X213469384Y-24783313D01*
X213469384Y-24783313D01*
G37*
G36*
X205465944Y-24602520D02*
X205597963Y-24628780D01*
X205752496Y-24692790D01*
X205971038Y-24783313D01*
X206306802Y-25007663D01*
X206592337Y-25293198D01*
X206816687Y-25628962D01*
X206884836Y-25793489D01*
X206971220Y-26002037D01*
X206976539Y-26028780D01*
X207050000Y-26398091D01*
X207050000Y-26801909D01*
X206971220Y-27197962D01*
X206816687Y-27571038D01*
X206592337Y-27906802D01*
X206306802Y-28192337D01*
X205971038Y-28416687D01*
X205752496Y-28507210D01*
X205597963Y-28571220D01*
X205465944Y-28597480D01*
X205201909Y-28650000D01*
X204798091Y-28650000D01*
X204534056Y-28597480D01*
X204402037Y-28571220D01*
X204247504Y-28507210D01*
X204028962Y-28416687D01*
X203693198Y-28192337D01*
X203407663Y-27906802D01*
X203183313Y-27571038D01*
X203028780Y-27197962D01*
X202950000Y-26801909D01*
X202950000Y-26398091D01*
X203023461Y-26028780D01*
X203028780Y-26002037D01*
X203115164Y-25793489D01*
X203183313Y-25628962D01*
X203407663Y-25293198D01*
X203693198Y-25007663D01*
X204028962Y-24783313D01*
X204247504Y-24692790D01*
X204402037Y-24628780D01*
X204534056Y-24602520D01*
X204798091Y-24550000D01*
X205201909Y-24550000D01*
X205465944Y-24602520D01*
X205465944Y-24602520D01*
G37*
G36*
X189631072Y-25347840D02*
X189881304Y-25451489D01*
X190106515Y-25601971D01*
X190298029Y-25793485D01*
X190298031Y-25793488D01*
X190298032Y-25793489D01*
X190321734Y-25828962D01*
X190448511Y-26018696D01*
X190552160Y-26268928D01*
X190605000Y-26534573D01*
X190605000Y-26805427D01*
X190552160Y-27071072D01*
X190448511Y-27321304D01*
X190448509Y-27321307D01*
X190397290Y-27397962D01*
X190298029Y-27546515D01*
X190106515Y-27738029D01*
X190106512Y-27738031D01*
X190106511Y-27738032D01*
X189881307Y-27888509D01*
X189881304Y-27888511D01*
X189631072Y-27992160D01*
X189365427Y-28045000D01*
X189094573Y-28045000D01*
X188828928Y-27992160D01*
X188578696Y-27888511D01*
X188578693Y-27888509D01*
X188353489Y-27738032D01*
X188353488Y-27738031D01*
X188353485Y-27738029D01*
X188161971Y-27546515D01*
X188062711Y-27397962D01*
X188011491Y-27321307D01*
X188011489Y-27321304D01*
X187907840Y-27071072D01*
X187855000Y-26805427D01*
X187855000Y-26534573D01*
X187907840Y-26268928D01*
X188011489Y-26018696D01*
X188138266Y-25828962D01*
X188161968Y-25793489D01*
X188161969Y-25793488D01*
X188161971Y-25793485D01*
X188353485Y-25601971D01*
X188578696Y-25451489D01*
X188828928Y-25347840D01*
X189094573Y-25295000D01*
X189365427Y-25295000D01*
X189631072Y-25347840D01*
X189631072Y-25347840D01*
G37*
M02*
