%TF.GenerationSoftware,KiCad,Pcbnew,(5.0.1-3-g963ef8bb5)*%
%TF.CreationDate,2019-05-12T17:35:21+02:00*%
%TF.ProjectId,KaJUSBhub,4B614A5553426875622E6B696361645F,0.2*%
%TF.SameCoordinates,Original*%
%TF.FileFunction,Paste,Top*%
%TF.FilePolarity,Positive*%
%FSLAX46Y46*%
G04 Gerber Fmt 4.6, Leading zero omitted, Abs format (unit mm)*
G04 Created by KiCad (PCBNEW (5.0.1-3-g963ef8bb5)) date Sonntag, 12. Mai 2019 um 17:35:21*
%MOMM*%
%LPD*%
G01*
G04 APERTURE LIST*
%ADD10C,0.150000*%
%ADD11R,1.300000X1.500000*%
%ADD12R,1.250000X1.500000*%
%ADD13R,1.300000X0.250000*%
%ADD14R,0.250000X1.300000*%
%ADD15R,1.500000X1.250000*%
%ADD16R,1.500000X1.300000*%
%ADD17R,0.600000X1.550000*%
%ADD18R,3.500000X2.400000*%
%ADD19R,2.400000X3.500000*%
%ADD20R,0.550000X1.500000*%
%ADD21R,1.500000X0.550000*%
G04 APERTURE END LIST*
D10*
X108000000Y-155000000D02*
X108000000Y-20000000D01*
X220000000Y-155000000D02*
X108000000Y-155000000D01*
X108000000Y-20000000D02*
X220000000Y-20000000D01*
X220000000Y-20000000D02*
X220000000Y-155000000D01*
D11*
X176000000Y-90650000D03*
X176000000Y-93350000D03*
D12*
X156000000Y-105750000D03*
X156000000Y-103250000D03*
D13*
X141600000Y-66250000D03*
X141600000Y-65750000D03*
X141600000Y-65250000D03*
X141600000Y-64750000D03*
X141600000Y-64250000D03*
X141600000Y-63750000D03*
X141600000Y-63250000D03*
X141600000Y-62750000D03*
X141600000Y-62250000D03*
X141600000Y-61750000D03*
X141600000Y-61250000D03*
X141600000Y-60750000D03*
D14*
X140000000Y-59150000D03*
X139500000Y-59150000D03*
X139000000Y-59150000D03*
X138500000Y-59150000D03*
X138000000Y-59150000D03*
X137500000Y-59150000D03*
X137000000Y-59150000D03*
X136500000Y-59150000D03*
X136000000Y-59150000D03*
X135500000Y-59150000D03*
X135000000Y-59150000D03*
X134500000Y-59150000D03*
D13*
X132900000Y-60750000D03*
X132900000Y-61250000D03*
X132900000Y-61750000D03*
X132900000Y-62250000D03*
X132900000Y-62750000D03*
X132900000Y-63250000D03*
X132900000Y-63750000D03*
X132900000Y-64250000D03*
X132900000Y-64750000D03*
X132900000Y-65250000D03*
X132900000Y-65750000D03*
X132900000Y-66250000D03*
D14*
X134500000Y-67850000D03*
X135000000Y-67850000D03*
X135500000Y-67850000D03*
X136000000Y-67850000D03*
X136500000Y-67850000D03*
X137000000Y-67850000D03*
X137500000Y-67850000D03*
X138000000Y-67850000D03*
X138500000Y-67850000D03*
X139000000Y-67850000D03*
X139500000Y-67850000D03*
X140000000Y-67850000D03*
D15*
X201500000Y-127250000D03*
X199000000Y-127250000D03*
X201500000Y-134250000D03*
X199000000Y-134250000D03*
D12*
X162000000Y-122250000D03*
X162000000Y-124750000D03*
X157000000Y-122250000D03*
X157000000Y-124750000D03*
D15*
X192990000Y-134250000D03*
X190490000Y-134250000D03*
X193000000Y-127250000D03*
X190500000Y-127250000D03*
X177250000Y-105500000D03*
X174750000Y-105500000D03*
X170750000Y-117500000D03*
X168250000Y-117500000D03*
D12*
X155000000Y-56250000D03*
X155000000Y-53750000D03*
X150000000Y-56250000D03*
X150000000Y-53750000D03*
X145000000Y-57250000D03*
X145000000Y-54750000D03*
D15*
X143500000Y-46000000D03*
X141000000Y-46000000D03*
X143500000Y-50000000D03*
X141000000Y-50000000D03*
D12*
X148000000Y-74250000D03*
X148000000Y-71750000D03*
X144000000Y-74250000D03*
X144000000Y-71750000D03*
X129500000Y-39450000D03*
X129500000Y-41950000D03*
X152500000Y-39450000D03*
X152500000Y-41950000D03*
X175500000Y-39350000D03*
X175500000Y-41850000D03*
D15*
X127750000Y-92000000D03*
X130250000Y-92000000D03*
X127750000Y-112000000D03*
X130250000Y-112000000D03*
D11*
X118750000Y-42100000D03*
X118750000Y-39400000D03*
X123750000Y-39400000D03*
X123750000Y-42100000D03*
X142250000Y-42100000D03*
X142250000Y-39400000D03*
X147250000Y-39400000D03*
X147250000Y-42100000D03*
X165100000Y-41990000D03*
X165100000Y-39290000D03*
X170180000Y-39290000D03*
X170180000Y-41990000D03*
D16*
X150350000Y-99000000D03*
X147650000Y-99000000D03*
X147650000Y-104000000D03*
X150350000Y-104000000D03*
X150350000Y-119000000D03*
X147650000Y-119000000D03*
X147650000Y-124000000D03*
X150350000Y-124000000D03*
X141350000Y-99000000D03*
X138650000Y-99000000D03*
X138650000Y-104000000D03*
X141350000Y-104000000D03*
X141350000Y-119000000D03*
X138650000Y-119000000D03*
X138650000Y-124000000D03*
X141350000Y-124000000D03*
X147650000Y-86000000D03*
X150350000Y-86000000D03*
X198900000Y-123750000D03*
X201600000Y-123750000D03*
X198900000Y-130750000D03*
X201600000Y-130750000D03*
X190390000Y-130750000D03*
X193090000Y-130750000D03*
X190400000Y-123750000D03*
X193100000Y-123750000D03*
D11*
X172500000Y-90650000D03*
X172500000Y-93350000D03*
D16*
X160850000Y-90000000D03*
X158150000Y-90000000D03*
X160850000Y-94000000D03*
X158150000Y-94000000D03*
X150350000Y-81000000D03*
X147650000Y-81000000D03*
D11*
X123750000Y-49350000D03*
X123750000Y-46650000D03*
X147200000Y-48700000D03*
X147200000Y-46000000D03*
X160020000Y-45800000D03*
X160020000Y-43100000D03*
D16*
X147650000Y-94000000D03*
X150350000Y-94000000D03*
X147650000Y-114000000D03*
X150350000Y-114000000D03*
X138650000Y-94000000D03*
X141350000Y-94000000D03*
X138650000Y-114000000D03*
X141350000Y-114000000D03*
X133650000Y-75000000D03*
X136350000Y-75000000D03*
X136350000Y-80000000D03*
X133650000Y-80000000D03*
D11*
X127000000Y-61350000D03*
X127000000Y-58650000D03*
D17*
X149845000Y-66450000D03*
X151115000Y-66450000D03*
X152385000Y-66450000D03*
X153655000Y-66450000D03*
X153655000Y-61050000D03*
X152385000Y-61050000D03*
X151115000Y-61050000D03*
X149845000Y-61050000D03*
D18*
X162100000Y-118000000D03*
X156900000Y-118000000D03*
D19*
X131250000Y-48900000D03*
X131250000Y-54100000D03*
D15*
X188250000Y-94000000D03*
X190750000Y-94000000D03*
X194250000Y-94000000D03*
X196750000Y-94000000D03*
X196250000Y-119500000D03*
X193750000Y-119500000D03*
D12*
X201000000Y-100250000D03*
X201000000Y-97750000D03*
X186500000Y-110750000D03*
X186500000Y-108250000D03*
D16*
X166850000Y-90000000D03*
X164150000Y-90000000D03*
X164150000Y-94000000D03*
X166850000Y-94000000D03*
X198767739Y-90117930D03*
X196067739Y-90117930D03*
X196067739Y-87117930D03*
X198767739Y-87117930D03*
X187880000Y-76200000D03*
X190580000Y-76200000D03*
X190067739Y-90117930D03*
X192767739Y-90117930D03*
X192767739Y-87117930D03*
X190067739Y-87117930D03*
D20*
X169000000Y-112200000D03*
X168200000Y-112200000D03*
X167400000Y-112200000D03*
X166600000Y-112200000D03*
X165800000Y-112200000D03*
X165000000Y-112200000D03*
X164200000Y-112200000D03*
X163400000Y-112200000D03*
X162600000Y-112200000D03*
X161800000Y-112200000D03*
X161000000Y-112200000D03*
D21*
X159300000Y-110500000D03*
X159300000Y-109700000D03*
X159300000Y-108900000D03*
X159300000Y-108100000D03*
X159300000Y-107300000D03*
X159300000Y-106500000D03*
X159300000Y-105700000D03*
X159300000Y-104900000D03*
X159300000Y-104100000D03*
X159300000Y-103300000D03*
X159300000Y-102500000D03*
D20*
X161000000Y-100800000D03*
X161800000Y-100800000D03*
X162600000Y-100800000D03*
X163400000Y-100800000D03*
X164200000Y-100800000D03*
X165000000Y-100800000D03*
X165800000Y-100800000D03*
X166600000Y-100800000D03*
X167400000Y-100800000D03*
X168200000Y-100800000D03*
X169000000Y-100800000D03*
D21*
X170700000Y-102500000D03*
X170700000Y-103300000D03*
X170700000Y-104100000D03*
X170700000Y-104900000D03*
X170700000Y-105700000D03*
X170700000Y-106500000D03*
X170700000Y-107300000D03*
X170700000Y-108100000D03*
X170700000Y-108900000D03*
X170700000Y-109700000D03*
X170700000Y-110500000D03*
D20*
X191500000Y-115200000D03*
X192300000Y-115200000D03*
X193100000Y-115200000D03*
X193900000Y-115200000D03*
X194700000Y-115200000D03*
X195500000Y-115200000D03*
X196300000Y-115200000D03*
X197100000Y-115200000D03*
X197900000Y-115200000D03*
X198700000Y-115200000D03*
X199500000Y-115200000D03*
D21*
X201200000Y-113500000D03*
X201200000Y-112700000D03*
X201200000Y-111900000D03*
X201200000Y-111100000D03*
X201200000Y-110300000D03*
X201200000Y-109500000D03*
X201200000Y-108700000D03*
X201200000Y-107900000D03*
X201200000Y-107100000D03*
X201200000Y-106300000D03*
X201200000Y-105500000D03*
D20*
X199500000Y-103800000D03*
X198700000Y-103800000D03*
X197900000Y-103800000D03*
X197100000Y-103800000D03*
X196300000Y-103800000D03*
X195500000Y-103800000D03*
X194700000Y-103800000D03*
X193900000Y-103800000D03*
X193100000Y-103800000D03*
X192300000Y-103800000D03*
X191500000Y-103800000D03*
D21*
X189800000Y-105500000D03*
X189800000Y-106300000D03*
X189800000Y-107100000D03*
X189800000Y-107900000D03*
X189800000Y-108700000D03*
X189800000Y-109500000D03*
X189800000Y-110300000D03*
X189800000Y-111100000D03*
X189800000Y-111900000D03*
X189800000Y-112700000D03*
X189800000Y-113500000D03*
D18*
X195100000Y-97500000D03*
X189900000Y-97500000D03*
M02*
