M48
;DRILL file {KiCad (5.0.1-3-g963ef8bb5)} date Sonntag, 12. Mai 2019 um 17:35:44
;FORMAT={-:-/ absolute / inch / decimal}
FMAT,2
INCH,TZ
T1C0.0157
T2C0.0315
T3C0.0394
T4C0.0531
T5C0.0551
T6C0.0591
T7C0.0906
T8C0.1260
T9C0.1457
%
G90
G05
M72
T1
X4.4094Y-3.0315
X4.4094Y-4.685
X4.4488Y-1.4567
X4.7638Y-2.3622
X4.8701Y-2.1063
X4.9528Y-1.5906
X5.3268Y-2.3898
X5.3465Y-2.4764
X5.4173Y-2.7756
X5.4291Y-2.5689
X5.4331Y-5.315
X5.4488Y-2.5236
X5.4567Y-1.5906
X5.5Y-2.5157
X5.5118Y-4.3307
X5.5709Y-2.6772
X5.6299Y-3.3071
X5.6693Y-2.5709
X5.6693Y-3.9764
X5.6693Y-4.8031
X5.6693Y-2.685
X5.6713Y-2.3484
X5.6752Y-2.3878
X5.689Y-1.8898
X5.689Y-2.5
X5.7677Y-2.3228
X5.815Y-3.5906
X5.8287Y-2.3819
X5.8661Y-4.3307
X5.9055Y-1.5906
X6.1024Y-4.3307
X6.1417Y-2.3071
X6.1811Y-1.9882
X6.1811Y-5.315
X6.2264Y-3.5433
X6.2283Y-3.7008
X6.2402Y-3.3071
X6.3622Y-1.5906
X6.3622Y-4.252
X6.4094Y-4.2677
X6.4331Y-4.3268
X6.4567Y-1.811
X6.4961Y-4.0945
X6.4961Y-4.252
X6.5669Y-4.252
X6.622Y-4.2244
X6.6732Y-3.622
X6.8307Y-3.937
X6.8504Y-3.4646
X6.8898Y-4.7244
X6.9094Y-4.4094
X6.9291Y-3.6752
X7.0079Y-1.811
X7.0866Y-5.315
X7.2835Y-3.0709
X7.3031Y-4.0748
X7.3622Y-3.3465
X7.3622Y-4.7047
X7.3701Y-4.5591
X7.5669Y-4.4488
X7.6Y-5.1496
X7.6024Y-4.872
X7.6181Y-4.3701
X7.7559Y-1.6535
X7.7953Y-4.1929
X7.7992Y-4.2795
X7.874Y-5.5118
X7.9134Y-3.7008
X7.9134Y-4.7244
X7.937Y-4.874
X7.937Y-5.1476
X7.9921Y-2.7165
X8.0118Y-4.1535
X8.0236Y-4.185
X8.0315Y-3.2677
X8.0354Y-4.5354
X8.0709Y-2.2047
X8.1102Y-4.2323
X8.189Y-3.7008
X8.4213Y-3.4213
T2
X7.15Y-3.
X7.15Y-3.1
X7.15Y-3.2
X7.15Y-3.3
X7.15Y-3.4
X7.15Y-3.5
X7.15Y-3.6
X7.15Y-3.7
X7.15Y-3.8
X7.15Y-3.9
X7.15Y-4.
X7.15Y-4.1
X7.15Y-4.2
X7.15Y-4.3
X7.15Y-4.4
X7.15Y-4.5
X7.15Y-4.6
X7.15Y-4.7
X7.15Y-4.8
X7.15Y-4.9
T3
X6.628Y-1.3031
X6.728Y-1.3031
X6.8079Y-1.3031
X6.9079Y-1.3031
X5.0394Y-4.5819
X5.0394Y-4.6819
X5.0394Y-4.7819
X5.0394Y-4.8819
X7.9Y-2.9
X7.9Y-3.
X6.4Y-3.3
X6.5Y-3.3
X6.6Y-3.3
X6.7Y-3.3
X6.8Y-3.3
X6.9Y-3.3
X7.4Y-3.2
X7.5Y-3.2
X7.6Y-3.2
X7.7Y-3.2
X7.8Y-3.2
X7.9Y-3.2
X8.2283Y-4.3866
X8.2283Y-4.4957
X8.2283Y-4.6047
X8.2283Y-4.7138
X8.2283Y-4.8228
X8.3402Y-4.4411
X8.3402Y-4.5502
X8.3402Y-4.6593
X8.3402Y-4.7683
X4.9016Y-2.8346
X4.9016Y-2.9346
X4.9016Y-3.0346
X4.9016Y-3.1346
X8.2283Y-3.1268
X8.2283Y-3.2358
X8.2283Y-3.3449
X8.2283Y-3.4539
X8.2283Y-3.563
X8.3402Y-3.1813
X8.3402Y-3.2904
X8.3402Y-3.3994
X8.3402Y-3.5085
X5.0394Y-3.7945
X5.0394Y-3.8945
X5.0394Y-3.9945
X5.0394Y-4.0945
X5.7224Y-1.3031
X5.8224Y-1.3031
X5.9024Y-1.3031
X6.0024Y-1.3031
X6.9Y-3.
X6.9Y-3.1
X4.8185Y-1.3031
X4.9185Y-1.3031
X4.9984Y-1.3031
X5.0984Y-1.3031
T4
X6.55Y-2.6
X6.7469Y-2.6
X7.1406Y-2.6
X7.3374Y-2.6
X6.55Y-2.2
X6.7469Y-2.2
X7.1406Y-2.2
X7.3374Y-2.2
X7.45Y-1.05
X7.45Y-1.2469
X7.45Y-1.6406
X7.45Y-1.8374
T5
X7.9921Y-1.4685
X7.9921Y-2.0589
X8.0905Y-1.567
X8.0905Y-1.9604
X8.1889Y-2.059
X8.1889Y-1.7637
X8.189Y-1.4685
X8.5825Y-1.5668
X8.5825Y-1.9606
X7.685Y-2.3661
X7.685Y-2.5551
X7.8346Y-2.3661
X7.8346Y-2.5551
X7.9843Y-2.3661
X7.9843Y-2.5551
X8.4843Y-2.3661
X8.4843Y-2.5551
T6
X6.55Y-2.9
X6.55Y-3.
T7
X5.6024Y-1.198
X6.1425Y-1.198
X4.6984Y-1.198
X5.2386Y-1.198
X6.5079Y-1.198
X7.048Y-1.198
T8
X8.2843Y-4.1126
X8.2843Y-5.0969
X8.2843Y-2.8528
X8.2843Y-3.837
T9
X4.9724Y-5.2598
X8.3898Y-1.0551
X8.4724Y-5.9094
X8.0709Y-1.0472
X8.5039Y-5.4724
X4.4488Y-5.7874
X4.4488Y-1.1024
T0
M30
